<svg width="200" height="60" viewBox="0 0 200 60" fill="none" xmlns="http://www.w3.org/2000/svg">
<mask id="path-1-outside-1_489_493" maskUnits="userSpaceOnUse" x="4" y="13" width="192" height="35" fill="black">
<rect fill="white" x="4" y="13" width="192" height="35"/>
<path d="M27.84 15.8C28.4533 15.8 28.9867 16.0267 29.44 16.48C29.8933 16.9333 30.12 17.4667 30.12 18.08V42.72C30.12 43.3333 29.8933 43.8667 29.44 44.32C28.9867 44.7733 28.4533 45 27.84 45H24.4C23.7867 45 23.2533 44.7733 22.8 44.32C22.3467 43.8667 22.12 43.3333 22.12 42.72V33.36C22.12 33.12 22.0133 33 21.8 33H15.28C15.04 33 14.92 33.12 14.92 33.36V42.72C14.92 43.3333 14.6933 43.8667 14.24 44.32C13.7867 44.7733 13.2533 45 12.64 45H9.2C8.58667 45 8.05333 44.7733 7.6 44.32C7.14667 43.8667 6.92 43.3333 6.92 42.72V18.08C6.92 17.4667 7.14667 16.9333 7.6 16.48C8.05333 16.0267 8.58667 15.8 9.2 15.8H12.64C13.2533 15.8 13.7867 16.0267 14.24 16.48C14.6933 16.9333 14.92 17.4667 14.92 18.08V26.64C14.92 26.88 15.04 27 15.28 27H21.8C22.0133 27 22.12 26.88 22.12 26.64V18.08C22.12 17.4667 22.3467 16.9333 22.8 16.48C23.2533 16.0267 23.7867 15.8 24.4 15.8H27.84ZM42.0634 24.2C42.6768 24.2 43.2101 24.4267 43.6634 24.88C44.1168 25.3333 44.3434 25.8667 44.3434 26.48V42.72C44.3434 43.3333 44.1168 43.8667 43.6634 44.32C43.2101 44.7733 42.6768 45 42.0634 45H38.6234C38.0101 45 37.4768 44.7733 37.0234 44.32C36.5701 43.8667 36.3434 43.3333 36.3434 42.72V26.48C36.3434 25.8667 36.5701 25.3333 37.0234 24.88C37.4768 24.4267 38.0101 24.2 38.6234 24.2H42.0634ZM42.0634 15C42.6768 15 43.2101 15.2267 43.6634 15.68C44.1168 16.1333 44.3434 16.6667 44.3434 17.28V18.32C44.3434 18.9333 44.1168 19.4667 43.6634 19.92C43.2101 20.3733 42.6768 20.6 42.0634 20.6H38.6234C38.0101 20.6 37.4768 20.3733 37.0234 19.92C36.5701 19.4667 36.3434 18.9333 36.3434 18.32V17.28C36.3434 16.6667 36.5701 16.1333 37.0234 15.68C37.4768 15.2267 38.0101 15 38.6234 15H42.0634ZM59.1919 31.6C62.2319 32 64.3919 32.7733 65.6719 33.92C66.9519 35.04 67.5919 36.6667 67.5919 38.8C67.5919 40.9067 66.8319 42.5333 65.3119 43.68C63.7919 44.8267 61.5519 45.4 58.5919 45.4C56.4052 45.4 54.2052 45.1867 51.9919 44.76C51.3519 44.6267 50.8185 44.2933 50.3919 43.76C49.9919 43.2267 49.7919 42.6133 49.7919 41.92V40.88C49.7919 40.32 50.0185 39.88 50.4719 39.56C50.9252 39.24 51.4185 39.1467 51.9519 39.28C53.9519 39.76 55.8319 40 57.5919 40C59.0585 40 59.7919 39.5733 59.7919 38.72C59.7919 38.32 59.6719 38.0267 59.4319 37.84C59.1919 37.6533 58.7119 37.5067 57.9919 37.4C55.0319 36.92 52.8852 36.0933 51.5519 34.92C50.2452 33.7467 49.5919 32.1733 49.5919 30.2C49.5919 28.1733 50.3652 26.6 51.9119 25.48C53.4852 24.36 55.8452 23.8 58.9919 23.8C61.0719 23.8 62.9919 23.9333 64.7519 24.2C65.4185 24.3067 65.9519 24.6133 66.3519 25.12C66.7785 25.6267 66.9919 26.2133 66.9919 26.88V27.72C66.9919 28.28 66.7519 28.7467 66.2719 29.12C65.8185 29.4667 65.3119 29.5867 64.7519 29.48C63.1252 29.16 61.4585 29 59.7519 29C58.8719 29 58.2585 29.0933 57.9119 29.28C57.5652 29.4667 57.3919 29.7733 57.3919 30.2C57.3919 31 57.9919 31.4667 59.1919 31.6ZM85.9666 25C86.5799 25 87.1132 25.2267 87.5666 25.68C88.0199 26.1333 88.2466 26.6667 88.2466 27.28V27.92C88.2466 28.5333 88.0199 29.0667 87.5666 29.52C87.1132 29.9733 86.5799 30.2 85.9666 30.2H82.4066C82.1666 30.2 82.0466 30.32 82.0466 30.56V36.2C82.0466 37.8 82.1799 38.8 82.4466 39.2C82.7132 39.6 83.3132 39.8 84.2466 39.8C84.6199 39.8 85.0732 39.76 85.6066 39.68C86.1666 39.6 86.6732 39.7467 87.1266 40.12C87.6066 40.4667 87.8466 40.92 87.8466 41.48V42.52C87.8466 43.1867 87.6332 43.7867 87.2066 44.32C86.8066 44.8267 86.2866 45.12 85.6466 45.2C84.7132 45.3333 83.5799 45.4 82.2466 45.4C79.3932 45.4 77.3799 44.7867 76.2066 43.56C75.0332 42.3333 74.4466 40.1467 74.4466 37V30.56C74.4466 30.32 74.3266 30.2 74.0866 30.2H72.5266C71.9132 30.2 71.3799 29.9733 70.9266 29.52C70.4732 29.0667 70.2466 28.5333 70.2466 27.92V27.28C70.2466 26.6667 70.4732 26.1333 70.9266 25.68C71.3799 25.2267 71.9132 25 72.5266 25H74.0866C74.3266 25 74.4466 24.88 74.4466 24.64V19.68C74.4466 19.0667 74.6732 18.5333 75.1266 18.08C75.5799 17.6267 76.1132 17.4 76.7266 17.4H79.7666C80.3799 17.4 80.9132 17.6267 81.3666 18.08C81.8199 18.5333 82.0466 19.0667 82.0466 19.68V24.64C82.0466 24.88 82.1666 25 82.4066 25H85.9666ZM99.8472 38.96C100.354 39.7867 101.167 40.2 102.287 40.2C103.407 40.2 104.221 39.7867 104.727 38.96C105.234 38.1067 105.487 36.6533 105.487 34.6C105.487 32.5467 105.234 31.1067 104.727 30.28C104.221 29.4267 103.407 29 102.287 29C101.167 29 100.354 29.4267 99.8472 30.28C99.3405 31.1067 99.0872 32.5467 99.0872 34.6C99.0872 36.6533 99.3405 38.1067 99.8472 38.96ZM94.3272 26.68C96.2205 24.76 98.8739 23.8 102.287 23.8C105.701 23.8 108.354 24.76 110.247 26.68C112.141 28.5733 113.087 31.2133 113.087 34.6C113.087 37.9867 112.141 40.64 110.247 42.56C108.354 44.4533 105.701 45.4 102.287 45.4C98.8739 45.4 96.2205 44.4533 94.3272 42.56C92.4339 40.64 91.4872 37.9867 91.4872 34.6C91.4872 31.2133 92.4339 28.5733 94.3272 26.68ZM131.235 24.28C131.849 24.2 132.382 24.3867 132.835 24.84C133.289 25.2933 133.515 25.84 133.515 26.48V27.52C133.515 28.1333 133.302 28.6667 132.875 29.12C132.449 29.5467 131.915 29.8 131.275 29.88C129.222 30.1467 127.582 30.92 126.355 32.2C125.129 33.4533 124.515 34.9867 124.515 36.8V42.72C124.515 43.3333 124.289 43.8667 123.835 44.32C123.382 44.7733 122.849 45 122.235 45H118.995C118.382 45 117.849 44.7733 117.395 44.32C116.942 43.8667 116.715 43.3333 116.715 42.72V26.48C116.715 25.8667 116.942 25.3333 117.395 24.88C117.849 24.4267 118.382 24.2 118.995 24.2H122.035C122.649 24.2 123.182 24.4267 123.635 24.88C124.089 25.3333 124.315 25.8667 124.315 26.48V28.16C124.315 28.1867 124.329 28.2 124.355 28.2C124.382 28.2 124.409 28.1867 124.435 28.16C126.115 25.9467 128.382 24.6533 131.235 24.28ZM144.29 24.2C144.903 24.2 145.437 24.4267 145.89 24.88C146.343 25.3333 146.57 25.8667 146.57 26.48V42.72C146.57 43.3333 146.343 43.8667 145.89 44.32C145.437 44.7733 144.903 45 144.29 45H140.85C140.237 45 139.703 44.7733 139.25 44.32C138.797 43.8667 138.57 43.3333 138.57 42.72V26.48C138.57 25.8667 138.797 25.3333 139.25 24.88C139.703 24.4267 140.237 24.2 140.85 24.2H144.29ZM144.29 15C144.903 15 145.437 15.2267 145.89 15.68C146.343 16.1333 146.57 16.6667 146.57 17.28V18.32C146.57 18.9333 146.343 19.4667 145.89 19.92C145.437 20.3733 144.903 20.6 144.29 20.6H140.85C140.237 20.6 139.703 20.3733 139.25 19.92C138.797 19.4667 138.57 18.9333 138.57 18.32V17.28C138.57 16.6667 138.797 16.1333 139.25 15.68C139.703 15.2267 140.237 15 140.85 15H144.29ZM164.458 32.6C164.698 32.6 164.818 32.48 164.818 32.24C164.792 31.0133 164.525 30.1333 164.018 29.6C163.538 29.0667 162.805 28.8 161.818 28.8C160.778 28.8 159.992 29.0667 159.458 29.6C158.952 30.1067 158.632 31 158.498 32.28C158.498 32.4933 158.605 32.6 158.818 32.6H164.458ZM161.618 23.8C168.392 23.8 171.792 27.3733 171.818 34.52C171.818 35.16 171.578 35.7067 171.098 36.16C170.618 36.5867 170.045 36.8 169.378 36.8H158.898C158.658 36.8 158.565 36.92 158.618 37.16C158.858 38.28 159.378 39.0667 160.178 39.52C161.005 39.9733 162.285 40.2 164.018 40.2C165.112 40.2 166.445 40.04 168.018 39.72C168.578 39.5867 169.085 39.7067 169.538 40.08C169.992 40.4267 170.218 40.8933 170.218 41.48V42.12C170.218 42.7867 170.005 43.4 169.578 43.96C169.178 44.4933 168.658 44.8133 168.018 44.92C166.392 45.24 164.658 45.4 162.818 45.4C159.032 45.4 156.112 44.48 154.058 42.64C152.032 40.7733 151.018 38.0933 151.018 34.6C151.018 31.1333 151.925 28.4667 153.738 26.6C155.552 24.7333 158.178 23.8 161.618 23.8ZM184.661 31.6C187.701 32 189.861 32.7733 191.141 33.92C192.421 35.04 193.061 36.6667 193.061 38.8C193.061 40.9067 192.301 42.5333 190.781 43.68C189.261 44.8267 187.021 45.4 184.061 45.4C181.874 45.4 179.674 45.1867 177.461 44.76C176.821 44.6267 176.287 44.2933 175.861 43.76C175.461 43.2267 175.261 42.6133 175.261 41.92V40.88C175.261 40.32 175.487 39.88 175.941 39.56C176.394 39.24 176.887 39.1467 177.421 39.28C179.421 39.76 181.301 40 183.061 40C184.527 40 185.261 39.5733 185.261 38.72C185.261 38.32 185.141 38.0267 184.901 37.84C184.661 37.6533 184.181 37.5067 183.461 37.4C180.501 36.92 178.354 36.0933 177.021 34.92C175.714 33.7467 175.061 32.1733 175.061 30.2C175.061 28.1733 175.834 26.6 177.381 25.48C178.954 24.36 181.314 23.8 184.461 23.8C186.541 23.8 188.461 23.9333 190.221 24.2C190.887 24.3067 191.421 24.6133 191.821 25.12C192.247 25.6267 192.461 26.2133 192.461 26.88V27.72C192.461 28.28 192.221 28.7467 191.741 29.12C191.287 29.4667 190.781 29.5867 190.221 29.48C188.594 29.16 186.927 29 185.221 29C184.341 29 183.727 29.0933 183.381 29.28C183.034 29.4667 182.861 29.7733 182.861 30.2C182.861 31 183.461 31.4667 184.661 31.6Z"/>
</mask>
<path d="M27.84 15.8C28.4533 15.8 28.9867 16.0267 29.44 16.48C29.8933 16.9333 30.12 17.4667 30.12 18.08V42.72C30.12 43.3333 29.8933 43.8667 29.44 44.32C28.9867 44.7733 28.4533 45 27.84 45H24.4C23.7867 45 23.2533 44.7733 22.8 44.32C22.3467 43.8667 22.12 43.3333 22.12 42.72V33.36C22.12 33.12 22.0133 33 21.8 33H15.28C15.04 33 14.92 33.12 14.92 33.36V42.72C14.92 43.3333 14.6933 43.8667 14.24 44.32C13.7867 44.7733 13.2533 45 12.64 45H9.2C8.58667 45 8.05333 44.7733 7.6 44.32C7.14667 43.8667 6.92 43.3333 6.92 42.72V18.08C6.92 17.4667 7.14667 16.9333 7.6 16.48C8.05333 16.0267 8.58667 15.8 9.2 15.8H12.64C13.2533 15.8 13.7867 16.0267 14.24 16.48C14.6933 16.9333 14.92 17.4667 14.92 18.08V26.64C14.92 26.88 15.04 27 15.28 27H21.8C22.0133 27 22.12 26.88 22.12 26.64V18.08C22.12 17.4667 22.3467 16.9333 22.8 16.48C23.2533 16.0267 23.7867 15.8 24.4 15.8H27.84ZM42.0634 24.2C42.6768 24.2 43.2101 24.4267 43.6634 24.88C44.1168 25.3333 44.3434 25.8667 44.3434 26.48V42.72C44.3434 43.3333 44.1168 43.8667 43.6634 44.32C43.2101 44.7733 42.6768 45 42.0634 45H38.6234C38.0101 45 37.4768 44.7733 37.0234 44.32C36.5701 43.8667 36.3434 43.3333 36.3434 42.72V26.48C36.3434 25.8667 36.5701 25.3333 37.0234 24.88C37.4768 24.4267 38.0101 24.2 38.6234 24.2H42.0634ZM42.0634 15C42.6768 15 43.2101 15.2267 43.6634 15.68C44.1168 16.1333 44.3434 16.6667 44.3434 17.28V18.32C44.3434 18.9333 44.1168 19.4667 43.6634 19.92C43.2101 20.3733 42.6768 20.6 42.0634 20.6H38.6234C38.0101 20.6 37.4768 20.3733 37.0234 19.92C36.5701 19.4667 36.3434 18.9333 36.3434 18.32V17.28C36.3434 16.6667 36.5701 16.1333 37.0234 15.68C37.4768 15.2267 38.0101 15 38.6234 15H42.0634ZM59.1919 31.6C62.2319 32 64.3919 32.7733 65.6719 33.92C66.9519 35.04 67.5919 36.6667 67.5919 38.8C67.5919 40.9067 66.8319 42.5333 65.3119 43.68C63.7919 44.8267 61.5519 45.4 58.5919 45.4C56.4052 45.4 54.2052 45.1867 51.9919 44.76C51.3519 44.6267 50.8185 44.2933 50.3919 43.76C49.9919 43.2267 49.7919 42.6133 49.7919 41.92V40.88C49.7919 40.32 50.0185 39.88 50.4719 39.56C50.9252 39.24 51.4185 39.1467 51.9519 39.28C53.9519 39.76 55.8319 40 57.5919 40C59.0585 40 59.7919 39.5733 59.7919 38.72C59.7919 38.32 59.6719 38.0267 59.4319 37.84C59.1919 37.6533 58.7119 37.5067 57.9919 37.4C55.0319 36.92 52.8852 36.0933 51.5519 34.92C50.2452 33.7467 49.5919 32.1733 49.5919 30.2C49.5919 28.1733 50.3652 26.6 51.9119 25.48C53.4852 24.36 55.8452 23.8 58.9919 23.8C61.0719 23.8 62.9919 23.9333 64.7519 24.2C65.4185 24.3067 65.9519 24.6133 66.3519 25.12C66.7785 25.6267 66.9919 26.2133 66.9919 26.88V27.72C66.9919 28.28 66.7519 28.7467 66.2719 29.12C65.8185 29.4667 65.3119 29.5867 64.7519 29.48C63.1252 29.16 61.4585 29 59.7519 29C58.8719 29 58.2585 29.0933 57.9119 29.28C57.5652 29.4667 57.3919 29.7733 57.3919 30.2C57.3919 31 57.9919 31.4667 59.1919 31.6ZM85.9666 25C86.5799 25 87.1132 25.2267 87.5666 25.68C88.0199 26.1333 88.2466 26.6667 88.2466 27.28V27.92C88.2466 28.5333 88.0199 29.0667 87.5666 29.52C87.1132 29.9733 86.5799 30.2 85.9666 30.2H82.4066C82.1666 30.2 82.0466 30.32 82.0466 30.56V36.2C82.0466 37.8 82.1799 38.8 82.4466 39.2C82.7132 39.6 83.3132 39.8 84.2466 39.8C84.6199 39.8 85.0732 39.76 85.6066 39.68C86.1666 39.6 86.6732 39.7467 87.1266 40.12C87.6066 40.4667 87.8466 40.92 87.8466 41.48V42.52C87.8466 43.1867 87.6332 43.7867 87.2066 44.32C86.8066 44.8267 86.2866 45.12 85.6466 45.2C84.7132 45.3333 83.5799 45.4 82.2466 45.4C79.3932 45.4 77.3799 44.7867 76.2066 43.56C75.0332 42.3333 74.4466 40.1467 74.4466 37V30.56C74.4466 30.32 74.3266 30.2 74.0866 30.2H72.5266C71.9132 30.2 71.3799 29.9733 70.9266 29.52C70.4732 29.0667 70.2466 28.5333 70.2466 27.92V27.28C70.2466 26.6667 70.4732 26.1333 70.9266 25.68C71.3799 25.2267 71.9132 25 72.5266 25H74.0866C74.3266 25 74.4466 24.88 74.4466 24.64V19.68C74.4466 19.0667 74.6732 18.5333 75.1266 18.08C75.5799 17.6267 76.1132 17.4 76.7266 17.4H79.7666C80.3799 17.4 80.9132 17.6267 81.3666 18.08C81.8199 18.5333 82.0466 19.0667 82.0466 19.68V24.64C82.0466 24.88 82.1666 25 82.4066 25H85.9666ZM99.8472 38.96C100.354 39.7867 101.167 40.2 102.287 40.2C103.407 40.2 104.221 39.7867 104.727 38.96C105.234 38.1067 105.487 36.6533 105.487 34.6C105.487 32.5467 105.234 31.1067 104.727 30.28C104.221 29.4267 103.407 29 102.287 29C101.167 29 100.354 29.4267 99.8472 30.28C99.3405 31.1067 99.0872 32.5467 99.0872 34.6C99.0872 36.6533 99.3405 38.1067 99.8472 38.96ZM94.3272 26.68C96.2205 24.76 98.8739 23.8 102.287 23.8C105.701 23.8 108.354 24.76 110.247 26.68C112.141 28.5733 113.087 31.2133 113.087 34.6C113.087 37.9867 112.141 40.64 110.247 42.56C108.354 44.4533 105.701 45.4 102.287 45.4C98.8739 45.4 96.2205 44.4533 94.3272 42.56C92.4339 40.64 91.4872 37.9867 91.4872 34.6C91.4872 31.2133 92.4339 28.5733 94.3272 26.68ZM131.235 24.28C131.849 24.2 132.382 24.3867 132.835 24.84C133.289 25.2933 133.515 25.84 133.515 26.48V27.52C133.515 28.1333 133.302 28.6667 132.875 29.12C132.449 29.5467 131.915 29.8 131.275 29.88C129.222 30.1467 127.582 30.92 126.355 32.2C125.129 33.4533 124.515 34.9867 124.515 36.8V42.72C124.515 43.3333 124.289 43.8667 123.835 44.32C123.382 44.7733 122.849 45 122.235 45H118.995C118.382 45 117.849 44.7733 117.395 44.32C116.942 43.8667 116.715 43.3333 116.715 42.72V26.48C116.715 25.8667 116.942 25.3333 117.395 24.88C117.849 24.4267 118.382 24.2 118.995 24.2H122.035C122.649 24.2 123.182 24.4267 123.635 24.88C124.089 25.3333 124.315 25.8667 124.315 26.48V28.16C124.315 28.1867 124.329 28.2 124.355 28.2C124.382 28.2 124.409 28.1867 124.435 28.16C126.115 25.9467 128.382 24.6533 131.235 24.28ZM144.29 24.2C144.903 24.2 145.437 24.4267 145.89 24.88C146.343 25.3333 146.57 25.8667 146.57 26.48V42.72C146.57 43.3333 146.343 43.8667 145.89 44.32C145.437 44.7733 144.903 45 144.29 45H140.85C140.237 45 139.703 44.7733 139.25 44.32C138.797 43.8667 138.57 43.3333 138.57 42.72V26.48C138.57 25.8667 138.797 25.3333 139.25 24.88C139.703 24.4267 140.237 24.2 140.85 24.2H144.29ZM144.29 15C144.903 15 145.437 15.2267 145.89 15.68C146.343 16.1333 146.57 16.6667 146.57 17.28V18.32C146.57 18.9333 146.343 19.4667 145.89 19.92C145.437 20.3733 144.903 20.6 144.29 20.6H140.85C140.237 20.6 139.703 20.3733 139.25 19.92C138.797 19.4667 138.57 18.9333 138.57 18.32V17.28C138.57 16.6667 138.797 16.1333 139.25 15.68C139.703 15.2267 140.237 15 140.85 15H144.29ZM164.458 32.6C164.698 32.6 164.818 32.48 164.818 32.24C164.792 31.0133 164.525 30.1333 164.018 29.6C163.538 29.0667 162.805 28.8 161.818 28.8C160.778 28.8 159.992 29.0667 159.458 29.6C158.952 30.1067 158.632 31 158.498 32.28C158.498 32.4933 158.605 32.6 158.818 32.6H164.458ZM161.618 23.8C168.392 23.8 171.792 27.3733 171.818 34.52C171.818 35.16 171.578 35.7067 171.098 36.16C170.618 36.5867 170.045 36.8 169.378 36.8H158.898C158.658 36.8 158.565 36.92 158.618 37.16C158.858 38.28 159.378 39.0667 160.178 39.52C161.005 39.9733 162.285 40.2 164.018 40.2C165.112 40.2 166.445 40.04 168.018 39.72C168.578 39.5867 169.085 39.7067 169.538 40.08C169.992 40.4267 170.218 40.8933 170.218 41.48V42.12C170.218 42.7867 170.005 43.4 169.578 43.96C169.178 44.4933 168.658 44.8133 168.018 44.92C166.392 45.24 164.658 45.4 162.818 45.4C159.032 45.4 156.112 44.48 154.058 42.64C152.032 40.7733 151.018 38.0933 151.018 34.6C151.018 31.1333 151.925 28.4667 153.738 26.6C155.552 24.7333 158.178 23.8 161.618 23.8ZM184.661 31.6C187.701 32 189.861 32.7733 191.141 33.92C192.421 35.04 193.061 36.6667 193.061 38.8C193.061 40.9067 192.301 42.5333 190.781 43.68C189.261 44.8267 187.021 45.4 184.061 45.4C181.874 45.4 179.674 45.1867 177.461 44.76C176.821 44.6267 176.287 44.2933 175.861 43.76C175.461 43.2267 175.261 42.6133 175.261 41.92V40.88C175.261 40.32 175.487 39.88 175.941 39.56C176.394 39.24 176.887 39.1467 177.421 39.28C179.421 39.76 181.301 40 183.061 40C184.527 40 185.261 39.5733 185.261 38.72C185.261 38.32 185.141 38.0267 184.901 37.84C184.661 37.6533 184.181 37.5067 183.461 37.4C180.501 36.92 178.354 36.0933 177.021 34.92C175.714 33.7467 175.061 32.1733 175.061 30.2C175.061 28.1733 175.834 26.6 177.381 25.48C178.954 24.36 181.314 23.8 184.461 23.8C186.541 23.8 188.461 23.9333 190.221 24.2C190.887 24.3067 191.421 24.6133 191.821 25.12C192.247 25.6267 192.461 26.2133 192.461 26.88V27.72C192.461 28.28 192.221 28.7467 191.741 29.12C191.287 29.4667 190.781 29.5867 190.221 29.48C188.594 29.16 186.927 29 185.221 29C184.341 29 183.727 29.0933 183.381 29.28C183.034 29.4667 182.861 29.7733 182.861 30.2C182.861 31 183.461 31.4667 184.661 31.6Z" fill="#D9F6CF"/>
<path d="M29.44 16.48L30.8542 15.0658L30.8542 15.0658L29.44 16.48ZM22.8 44.32L24.2142 42.9058L24.2142 42.9058L22.8 44.32ZM14.24 44.32L15.6542 45.7342L15.6542 45.7342L14.24 44.32ZM7.6 44.32L6.18579 45.7342L6.18579 45.7342L7.6 44.32ZM7.6 16.48L6.18579 15.0658L6.18579 15.0658L7.6 16.48ZM14.24 16.48L15.6542 15.0658L15.6542 15.0658L14.24 16.48ZM22.8 16.48L21.3858 15.0658L21.3858 15.0658L22.8 16.48ZM27.84 17.8C27.8938 17.8 27.9127 17.8085 27.9177 17.8107C27.9245 17.8135 27.9612 17.8296 28.0258 17.8942L30.8542 15.0658C30.0447 14.2563 29.0099 13.8 27.84 13.8V17.8ZM28.0258 17.8942C28.0904 17.9588 28.1065 17.9955 28.1093 18.0023C28.1115 18.0073 28.12 18.0262 28.12 18.08H32.12C32.12 16.9101 31.6637 15.8753 30.8542 15.0658L28.0258 17.8942ZM28.12 18.08V42.72H32.12V18.08H28.12ZM28.12 42.72C28.12 42.7738 28.1115 42.7927 28.1093 42.7977C28.1065 42.8045 28.0904 42.8412 28.0258 42.9058L30.8542 45.7342C31.6637 44.9247 32.12 43.8899 32.12 42.72H28.12ZM28.0258 42.9058C27.9612 42.9704 27.9245 42.9865 27.9177 42.9893C27.9127 42.9915 27.8938 43 27.84 43V47C29.0099 47 30.0447 46.5437 30.8542 45.7342L28.0258 42.9058ZM27.84 43H24.4V47H27.84V43ZM24.4 43C24.3462 43 24.3273 42.9915 24.3223 42.9893C24.3155 42.9865 24.2788 42.9704 24.2142 42.9058L21.3858 45.7342C22.1953 46.5437 23.2301 47 24.4 47V43ZM24.2142 42.9058C24.1496 42.8412 24.1335 42.8045 24.1307 42.7977C24.1285 42.7927 24.12 42.7738 24.12 42.72H20.12C20.12 43.8899 20.5763 44.9247 21.3858 45.7342L24.2142 42.9058ZM24.12 42.72V33.36H20.12V42.72H24.12ZM24.12 33.36C24.12 32.9859 24.042 32.3318 23.5348 31.7613C22.9878 31.1458 22.28 31 21.8 31V35C21.5334 35 20.9856 34.9142 20.5452 34.4187C20.1447 33.9682 20.12 33.4941 20.12 33.36H24.12ZM21.8 31H15.28V35H21.8V31ZM15.28 31C14.8517 31 14.1631 31.1084 13.5958 31.6758C13.0284 32.2431 12.92 32.9317 12.92 33.36H16.92C16.92 33.5483 16.8716 34.0569 16.4242 34.5042C15.9769 34.9516 15.4683 35 15.28 35V31ZM12.92 33.36V42.72H16.92V33.36H12.92ZM12.92 42.72C12.92 42.7738 12.9115 42.7927 12.9093 42.7977C12.9065 42.8045 12.8904 42.8412 12.8258 42.9058L15.6542 45.7342C16.4637 44.9247 16.92 43.8899 16.92 42.72H12.92ZM12.8258 42.9058C12.7612 42.9704 12.7245 42.9865 12.7177 42.9893C12.7127 42.9915 12.6938 43 12.64 43V47C13.8099 47 14.8447 46.5437 15.6542 45.7342L12.8258 42.9058ZM12.64 43H9.2V47H12.64V43ZM9.2 43C9.14621 43 9.12728 42.9915 9.12228 42.9893C9.11553 42.9865 9.07882 42.9704 9.01421 42.9058L6.18579 45.7342C6.99527 46.5437 8.03005 47 9.2 47V43ZM9.01421 42.9058C8.9496 42.8412 8.93353 42.8045 8.93066 42.7977C8.92854 42.7927 8.92 42.7738 8.92 42.72H4.92C4.92 43.8899 5.37631 44.9247 6.18579 45.7342L9.01421 42.9058ZM8.92 42.72V18.08H4.92V42.72H8.92ZM8.92 18.08C8.92 18.0262 8.92854 18.0073 8.93066 18.0023C8.93353 17.9955 8.9496 17.9588 9.01421 17.8942L6.18579 15.0658C5.37631 15.8753 4.92 16.9101 4.92 18.08H8.92ZM9.01421 17.8942C9.07882 17.8296 9.11553 17.8135 9.12228 17.8107C9.12728 17.8085 9.14621 17.8 9.2 17.8V13.8C8.03006 13.8 6.99527 14.2563 6.18579 15.0658L9.01421 17.8942ZM9.2 17.8H12.64V13.8H9.2V17.8ZM12.64 17.8C12.6938 17.8 12.7127 17.8085 12.7177 17.8107C12.7245 17.8135 12.7612 17.8296 12.8258 17.8942L15.6542 15.0658C14.8447 14.2563 13.8099 13.8 12.64 13.8V17.8ZM12.8258 17.8942C12.8904 17.9588 12.9065 17.9955 12.9093 18.0023C12.9115 18.0073 12.92 18.0262 12.92 18.08H16.92C16.92 16.9101 16.4637 15.8753 15.6542 15.0658L12.8258 17.8942ZM12.92 18.08V26.64H16.92V18.08H12.92ZM12.92 26.64C12.92 27.0683 13.0284 27.7569 13.5958 28.3242C14.1631 28.8916 14.8517 29 15.28 29V25C15.4683 25 15.9769 25.0484 16.4242 25.4958C16.8716 25.9431 16.92 26.4517 16.92 26.64H12.92ZM15.28 29H21.8V25H15.28V29ZM21.8 29C22.28 29 22.9878 28.8542 23.5348 28.2387C24.042 27.6682 24.12 27.0141 24.12 26.64H20.12C20.12 26.5059 20.1447 26.0318 20.5452 25.5813C20.9856 25.0858 21.5334 25 21.8 25V29ZM24.12 26.64V18.08H20.12V26.64H24.12ZM24.12 18.08C24.12 18.0262 24.1285 18.0073 24.1307 18.0023C24.1335 17.9955 24.1496 17.9588 24.2142 17.8942L21.3858 15.0658C20.5763 15.8753 20.12 16.9101 20.12 18.08H24.12ZM24.2142 17.8942C24.2788 17.8296 24.3155 17.8135 24.3223 17.8107C24.3273 17.8085 24.3462 17.8 24.4 17.8V13.8C23.2301 13.8 22.1953 14.2563 21.3858 15.0658L24.2142 17.8942ZM24.4 17.8H27.84V13.8H24.4V17.8ZM43.6634 24.88L42.2492 26.2942L42.2492 26.2942L43.6634 24.88ZM43.6634 44.32L42.2492 42.9058L42.2492 42.9058L43.6634 44.32ZM37.0234 44.32L35.6092 45.7342L35.6092 45.7342L37.0234 44.32ZM37.0234 24.88L38.4377 26.2942L38.4377 26.2942L37.0234 24.88ZM43.6634 15.68L42.2492 17.0942L42.2492 17.0942L43.6634 15.68ZM43.6634 19.92L42.2492 18.5058L42.2492 18.5058L43.6634 19.92ZM37.0234 19.92L35.6092 21.3342L35.6092 21.3342L37.0234 19.92ZM37.0234 15.68L35.6092 14.2658L35.6092 14.2658L37.0234 15.68ZM42.0634 26.2C42.1172 26.2 42.1362 26.2085 42.1412 26.2107C42.1479 26.2135 42.1846 26.2296 42.2492 26.2942L45.0777 23.4658C44.2682 22.6563 43.2334 22.2 42.0634 22.2V26.2ZM42.2492 26.2942C42.3138 26.3588 42.3299 26.3955 42.3328 26.4023C42.3349 26.4073 42.3434 26.4262 42.3434 26.48H46.3434C46.3434 25.3101 45.8871 24.2753 45.0776 23.4658L42.2492 26.2942ZM42.3434 26.48V42.72H46.3434V26.48H42.3434ZM42.3434 42.72C42.3434 42.7738 42.3349 42.7927 42.3328 42.7977C42.3299 42.8045 42.3138 42.8412 42.2492 42.9058L45.0777 45.7342C45.8871 44.9247 46.3434 43.8899 46.3434 42.72H42.3434ZM42.2492 42.9058C42.1846 42.9704 42.1479 42.9865 42.1412 42.9893C42.1362 42.9915 42.1172 43 42.0634 43V47C43.2334 47 44.2682 46.5437 45.0777 45.7342L42.2492 42.9058ZM42.0634 43H38.6234V47H42.0634V43ZM38.6234 43C38.5696 43 38.5507 42.9915 38.5457 42.9893C38.539 42.9865 38.5023 42.9704 38.4377 42.9058L35.6092 45.7342C36.4187 46.5437 37.4535 47 38.6234 47V43ZM38.4377 42.9058C38.373 42.8412 38.357 42.8045 38.3541 42.7977C38.352 42.7927 38.3434 42.7738 38.3434 42.72H34.3434C34.3434 43.8899 34.7997 44.9247 35.6092 45.7342L38.4377 42.9058ZM38.3434 42.72V26.48H34.3434V42.72H38.3434ZM38.3434 26.48C38.3434 26.4262 38.352 26.4073 38.3541 26.4023C38.357 26.3955 38.373 26.3588 38.4377 26.2942L35.6092 23.4658C34.7997 24.2753 34.3434 25.3101 34.3434 26.48H38.3434ZM38.4377 26.2942C38.5023 26.2296 38.539 26.2135 38.5457 26.2107C38.5507 26.2085 38.5696 26.2 38.6234 26.2V22.2C37.4535 22.2 36.4187 22.6563 35.6092 23.4658L38.4377 26.2942ZM38.6234 26.2H42.0634V22.2H38.6234V26.2ZM42.0634 17C42.1172 17 42.1362 17.0085 42.1412 17.0107C42.1479 17.0135 42.1846 17.0296 42.2492 17.0942L45.0777 14.2658C44.2682 13.4563 43.2334 13 42.0634 13V17ZM42.2492 17.0942C42.3138 17.1588 42.3299 17.1955 42.3328 17.2023C42.3349 17.2073 42.3434 17.2262 42.3434 17.28H46.3434C46.3434 16.1101 45.8871 15.0753 45.0777 14.2658L42.2492 17.0942ZM42.3434 17.28V18.32H46.3434V17.28H42.3434ZM42.3434 18.32C42.3434 18.3738 42.3349 18.3927 42.3328 18.3977C42.3299 18.4045 42.3138 18.4412 42.2492 18.5058L45.0777 21.3342C45.8871 20.5247 46.3434 19.4899 46.3434 18.32H42.3434ZM42.2492 18.5058C42.1846 18.5704 42.1479 18.5865 42.1412 18.5893C42.1362 18.5915 42.1172 18.6 42.0634 18.6V22.6C43.2334 22.6 44.2682 22.1437 45.0777 21.3342L42.2492 18.5058ZM42.0634 18.6H38.6234V22.6H42.0634V18.6ZM38.6234 18.6C38.5696 18.6 38.5507 18.5915 38.5457 18.5893C38.539 18.5865 38.5023 18.5704 38.4377 18.5058L35.6092 21.3342C36.4187 22.1437 37.4535 22.6 38.6234 22.6V18.6ZM38.4377 18.5058C38.373 18.4412 38.357 18.4045 38.3541 18.3977C38.352 18.3927 38.3434 18.3738 38.3434 18.32H34.3434C34.3434 19.4899 34.7997 20.5247 35.6092 21.3342L38.4377 18.5058ZM38.3434 18.32V17.28H34.3434V18.32H38.3434ZM38.3434 17.28C38.3434 17.2262 38.352 17.2073 38.3541 17.2023C38.357 17.1955 38.373 17.1588 38.4377 17.0942L35.6092 14.2658C34.7997 15.0753 34.3434 16.1101 34.3434 17.28H38.3434ZM38.4377 17.0942C38.5023 17.0296 38.539 17.0135 38.5457 17.0107C38.5507 17.0085 38.5696 17 38.6234 17V13C37.4535 13 36.4187 13.4563 35.6092 14.2658L38.4377 17.0942ZM38.6234 17H42.0634V13H38.6234V17ZM59.1919 31.6L59.4528 29.6171L59.4328 29.6145L59.4127 29.6122L59.1919 31.6ZM65.6719 33.92L64.3374 35.4097L64.3461 35.4175L64.3549 35.4252L65.6719 33.92ZM65.3119 43.68L66.5164 45.2766L66.5164 45.2766L65.3119 43.68ZM51.9919 44.76L51.584 46.718L51.5986 46.721L51.6133 46.7238L51.9919 44.76ZM50.3919 43.76L48.7919 44.96L48.8106 44.985L48.8301 45.0094L50.3919 43.76ZM50.4719 39.56L49.3185 37.9261L49.3185 37.9261L50.4719 39.56ZM51.9519 39.28L51.4668 41.2203L51.476 41.2226L51.4851 41.2248L51.9519 39.28ZM59.4319 37.84L58.204 39.4187L58.204 39.4187L59.4319 37.84ZM57.9919 37.4L57.6717 39.3742L57.6852 39.3764L57.6988 39.3784L57.9919 37.4ZM51.5519 34.92L50.2156 36.4081L50.2231 36.4148L50.2306 36.4214L51.5519 34.92ZM51.9119 25.48L50.752 23.8507L50.7454 23.8554L50.7389 23.8601L51.9119 25.48ZM64.7519 24.2L65.0679 22.2251L65.0597 22.2238L65.0515 22.2226L64.7519 24.2ZM66.3519 25.12L64.7821 26.3593L64.8017 26.3841L64.8221 26.4083L66.3519 25.12ZM66.2719 29.12L67.4868 30.7087L67.4933 30.7037L67.4998 30.6987L66.2719 29.12ZM64.7519 29.48L64.3658 31.4424L64.3777 31.4447L64.7519 29.48ZM57.9119 29.28L56.9637 27.5191L56.9637 27.5191L57.9119 29.28ZM58.931 33.5829C61.8454 33.9664 63.5124 34.6706 64.3374 35.4097L67.0064 32.4303C65.2713 30.876 62.6183 30.0336 59.4528 29.6171L58.931 33.5829ZM64.3549 35.4252C65.0945 36.0724 65.5919 37.0853 65.5919 38.8H69.5919C69.5919 36.2481 68.8092 34.0076 66.9889 32.4148L64.3549 35.4252ZM65.5919 38.8C65.5919 40.356 65.0681 41.3587 64.1074 42.0834L66.5164 45.2766C68.5957 43.708 69.5919 41.4573 69.5919 38.8H65.5919ZM64.1074 42.0834C63.0795 42.8588 61.3433 43.4 58.5919 43.4V47.4C61.7605 47.4 64.5042 46.7946 66.5164 45.2766L64.1074 42.0834ZM58.5919 43.4C56.5361 43.4 54.4629 43.1995 52.3704 42.7962L51.6133 46.7238C53.9475 47.1738 56.2743 47.4 58.5919 47.4V43.4ZM52.3998 42.802C52.2367 42.7681 52.1038 42.6984 51.9536 42.5106L48.8301 45.0094C49.5332 45.8883 50.4671 46.4853 51.584 46.718L52.3998 42.802ZM51.9919 42.56C51.8624 42.3874 51.7919 42.1991 51.7919 41.92H47.7919C47.7919 43.0275 48.1213 44.0659 48.7919 44.96L51.9919 42.56ZM51.7919 41.92V40.88H47.7919V41.92H51.7919ZM51.7919 40.88C51.7919 40.8764 51.7906 40.9473 51.7398 41.0459C51.7165 41.0913 51.6896 41.1285 51.6649 41.1561C51.6408 41.183 51.6245 41.1945 51.6252 41.1939L49.3185 37.9261C48.3285 38.6249 47.7919 39.6773 47.7919 40.88H51.7919ZM51.6252 41.1939C51.6361 41.1863 51.6343 41.189 51.6197 41.1954C51.6045 41.202 51.5818 41.2098 51.5537 41.2151C51.5254 41.2205 51.5003 41.2217 51.4815 41.221C51.4632 41.2203 51.4576 41.218 51.4668 41.2203L52.4369 37.3397C51.3328 37.0637 50.2423 37.274 49.3185 37.9261L51.6252 41.1939ZM51.4851 41.2248C53.613 41.7355 55.6509 42 57.5919 42V38C56.0128 38 54.2907 37.7845 52.4186 37.3352L51.4851 41.2248ZM57.5919 42C58.4536 42 59.4269 41.8862 60.2477 41.4087C61.2343 40.8347 61.7919 39.8537 61.7919 38.72H57.7919C57.7919 38.6399 57.8117 38.4731 57.919 38.2858C58.0266 38.0979 58.1622 37.9943 58.2361 37.9513C58.2974 37.9157 58.295 37.933 58.1736 37.9566C58.0556 37.9795 57.8675 38 57.5919 38V42ZM61.7919 38.72C61.7919 37.9137 61.5322 36.9398 60.6598 36.2613L58.204 39.4187C58.0361 39.2881 57.9173 39.1199 57.8508 38.9573C57.8203 38.8829 57.8057 38.8217 57.7987 38.7811C57.7952 38.7608 57.7935 38.7453 57.7927 38.7352C57.7923 38.7301 57.7921 38.7263 57.792 38.7238C57.7919 38.7225 57.7919 38.7216 57.7919 38.7209C57.7919 38.7206 57.7919 38.7204 57.7919 38.7202C57.7919 38.7202 57.7919 38.7201 57.7919 38.7201C57.7919 38.72 57.7919 38.72 57.7919 38.72C57.7919 38.7202 57.7919 38.7198 57.7919 38.72C57.7919 38.7202 57.7919 38.7198 57.7919 38.72H61.7919ZM60.6598 36.2613C60.2625 35.9524 59.8178 35.7816 59.4763 35.6773C59.109 35.5651 58.7039 35.4836 58.285 35.4216L57.6988 39.3784C57.9999 39.423 58.1947 39.4683 58.3074 39.5027C58.3618 39.5193 58.3779 39.5277 58.3666 39.5224C58.3581 39.5185 58.2937 39.4885 58.204 39.4187L60.6598 36.2613ZM58.312 35.4258C55.4963 34.9692 53.7903 34.2256 52.8731 33.4186L50.2306 36.4214C51.9802 37.961 54.5674 38.8708 57.6717 39.3742L58.312 35.4258ZM52.8881 33.4319C52.0587 32.6871 51.5919 31.6836 51.5919 30.2H47.5919C47.5919 32.6631 48.4317 34.8062 50.2156 36.4081L52.8881 33.4319ZM51.5919 30.2C51.5919 28.7685 52.0939 27.8175 53.0849 27.0999L50.7389 23.8601C48.6365 25.3825 47.5919 27.5781 47.5919 30.2H51.5919ZM53.0717 27.1093C54.1532 26.3395 56.0219 25.8 58.9919 25.8V21.8C55.6685 21.8 52.8172 22.3805 50.752 23.8507L53.0717 27.1093ZM58.9919 25.8C60.9878 25.8 62.8063 25.928 64.4523 26.1774L65.0515 22.2226C63.1775 21.9386 61.1559 21.8 58.9919 21.8V25.8ZM64.4359 26.1749C64.6322 26.2063 64.7083 26.2658 64.7821 26.3593L67.9216 23.8807C67.1954 22.9608 66.2049 22.407 65.0679 22.2251L64.4359 26.1749ZM64.8221 26.4083C64.9429 26.5518 64.9919 26.6814 64.9919 26.88H68.9919C68.9919 25.7453 68.6142 24.7015 67.8817 23.8317L64.8221 26.4083ZM64.9919 26.88V27.72H68.9919V26.88H64.9919ZM64.9919 27.72C64.9919 27.7162 64.9924 27.6971 64.9994 27.6672C65.0065 27.6368 65.018 27.605 65.0333 27.5753C65.0659 27.5119 65.0906 27.505 65.044 27.5413L67.4998 30.6987C68.4188 29.9839 68.9919 28.9557 68.9919 27.72H64.9919ZM65.057 27.5313C65.0426 27.5423 65.0393 27.5428 65.0475 27.5388C65.0562 27.5345 65.0713 27.5285 65.0909 27.5238C65.1106 27.5192 65.127 27.5178 65.1369 27.5177C65.1463 27.5175 65.1435 27.5186 65.1261 27.5153L64.3777 31.4447C65.4974 31.658 66.5819 31.4007 67.4868 30.7087L65.057 27.5313ZM65.1379 27.5176C63.3804 27.1719 61.5843 27 59.7519 27V31C61.3328 31 62.87 31.1481 64.3658 31.4424L65.1379 27.5176ZM59.7519 27C58.8546 27 57.7896 27.0743 56.9637 27.5191L58.8601 31.0409C58.7498 31.1003 58.7376 31.0769 58.9328 31.0472C59.1082 31.0205 59.3746 31 59.7519 31V27ZM56.9637 27.5191C56.4984 27.7696 56.0744 28.1463 55.7807 28.6659C55.4919 29.1769 55.3919 29.7144 55.3919 30.2H59.3919C59.3919 30.259 59.3785 30.4298 59.263 30.6341C59.1426 30.8471 58.9787 30.9771 58.8601 31.0409L56.9637 27.5191ZM55.3919 30.2C55.3919 31.1796 55.7979 32.094 56.614 32.7287C57.3297 33.2853 58.2005 33.5021 58.971 33.5878L59.4127 29.6122C59.2168 29.5905 59.0978 29.5605 59.0368 29.5401C58.9758 29.5198 59.0026 29.5191 59.0698 29.5713C59.1455 29.6302 59.2417 29.7333 59.3119 29.8813C59.3804 30.0261 59.3919 30.1458 59.3919 30.2H55.3919ZM87.5666 25.68L86.1523 27.0942L86.1524 27.0942L87.5666 25.68ZM87.5666 29.52L86.1524 28.1058L86.1523 28.1058L87.5666 29.52ZM82.4466 39.2L84.1107 38.0906L84.1107 38.0906L82.4466 39.2ZM85.6066 39.68L85.3237 37.7001L85.3099 37.7021L85.6066 39.68ZM87.1266 40.12L85.8551 41.6639L85.9041 41.7042L85.9556 41.7414L87.1266 40.12ZM87.2066 44.32L85.6448 43.0706L85.6368 43.0807L87.2066 44.32ZM85.6466 45.2L85.3985 43.2154L85.3811 43.2176L85.3637 43.2201L85.6466 45.2ZM76.2066 43.56L77.6518 42.1776L77.6518 42.1776L76.2066 43.56ZM70.9266 29.52L72.3408 28.1058L72.3408 28.1058L70.9266 29.52ZM70.9266 25.68L69.5123 24.2658L70.9266 25.68ZM75.1266 18.08L76.5408 19.4942L76.5408 19.4942L75.1266 18.08ZM85.9666 27C86.0204 27 86.0393 27.0085 86.0443 27.0107C86.051 27.0135 86.0877 27.0296 86.1523 27.0942L88.9808 24.2658C88.1713 23.4563 87.1365 23 85.9666 23V27ZM86.1524 27.0942C86.217 27.1588 86.233 27.1955 86.2359 27.2023C86.238 27.2073 86.2466 27.2262 86.2466 27.28H90.2466C90.2466 26.1101 89.7903 25.0753 88.9808 24.2658L86.1524 27.0942ZM86.2466 27.28V27.92H90.2466V27.28H86.2466ZM86.2466 27.92C86.2466 27.9738 86.238 27.9927 86.2359 27.9977C86.233 28.0045 86.217 28.0412 86.1524 28.1058L88.9808 30.9342C89.7903 30.1247 90.2466 29.0899 90.2466 27.92H86.2466ZM86.1523 28.1058C86.0877 28.1704 86.051 28.1865 86.0443 28.1893C86.0393 28.1915 86.0204 28.2 85.9666 28.2V32.2C87.1365 32.2 88.1713 31.7437 88.9808 30.9342L86.1523 28.1058ZM85.9666 28.2H82.4066V32.2H85.9666V28.2ZM82.4066 28.2C81.9783 28.2 81.2897 28.3084 80.7224 28.8758C80.155 29.4431 80.0466 30.1317 80.0466 30.56H84.0466C84.0466 30.7483 83.9981 31.2569 83.5508 31.7042C83.1034 32.1516 82.5949 32.2 82.4066 32.2V28.2ZM80.0466 30.56V36.2H84.0466V30.56H80.0466ZM80.0466 36.2C80.0466 37.0437 80.081 37.7914 80.1641 38.4143C80.2362 38.9551 80.3776 39.7022 80.7825 40.3094L84.1107 38.0906C84.2017 38.2271 84.2139 38.3054 84.1946 38.2381C84.1793 38.1844 84.154 38.0731 84.129 37.8857C84.0787 37.5086 84.0466 36.9563 84.0466 36.2H80.0466ZM80.7825 40.3094C81.6583 41.6232 83.2363 41.8 84.2466 41.8V37.8C84.0827 37.8 83.9582 37.7911 83.8677 37.7793C83.7762 37.7674 83.7342 37.7544 83.729 37.7526C83.7241 37.751 83.7725 37.7662 83.8475 37.8181C83.9265 37.8728 84.0245 37.9614 84.1107 38.0906L80.7825 40.3094ZM84.2466 41.8C84.7522 41.8 85.3108 41.7467 85.9032 41.6579L85.3099 37.7021C84.8356 37.7733 84.4876 37.8 84.2466 37.8V41.8ZM85.8894 41.6599C85.9023 41.6581 85.9022 41.6593 85.8918 41.6586C85.881 41.6579 85.8662 41.6557 85.8504 41.6511C85.8348 41.6466 85.8255 41.6419 85.824 41.6411C85.8229 41.6405 85.8335 41.6461 85.8551 41.6639L88.398 38.5761C87.5296 37.861 86.4637 37.5373 85.3237 37.7001L85.8894 41.6599ZM85.9556 41.7414C85.9852 41.7627 85.9432 41.7394 85.899 41.6558C85.8783 41.6168 85.8639 41.577 85.8554 41.5409C85.847 41.5057 85.8466 41.4836 85.8466 41.48H89.8466C89.8466 40.2357 89.2631 39.196 88.2975 38.4986L85.9556 41.7414ZM85.8466 41.48V42.52H89.8466V41.48H85.8466ZM85.8466 42.52C85.8466 42.7206 85.7953 42.8825 85.6448 43.0706L88.7683 45.5694C89.4711 44.6909 89.8466 43.6527 89.8466 42.52H85.8466ZM85.6368 43.0807C85.5621 43.1754 85.5166 43.2007 85.3985 43.2154L85.8946 47.1846C87.0565 47.0393 88.0511 46.4779 88.7763 45.5593L85.6368 43.0807ZM85.3637 43.2201C84.5536 43.3358 83.5206 43.4 82.2466 43.4V47.4C83.6391 47.4 84.8729 47.3308 85.9294 47.1799L85.3637 43.2201ZM82.2466 43.4C79.5866 43.4 78.259 42.8123 77.6518 42.1776L74.7613 44.9424C76.5008 46.761 79.1999 47.4 82.2466 47.4V43.4ZM77.6518 42.1776C77.036 41.5337 76.4466 40.0251 76.4466 37H72.4466C72.4466 40.2682 73.0305 43.133 74.7613 44.9424L77.6518 42.1776ZM76.4466 37V30.56H72.4466V37H76.4466ZM76.4466 30.56C76.4466 30.1317 76.3381 29.4431 75.7708 28.8758C75.2034 28.3084 74.5149 28.2 74.0866 28.2V32.2C73.8983 32.2 73.3897 32.1516 72.9424 31.7042C72.495 31.2569 72.4466 30.7483 72.4466 30.56H76.4466ZM74.0866 28.2H72.5266V32.2H74.0866V28.2ZM72.5266 28.2C72.4728 28.2 72.4538 28.1915 72.4488 28.1893C72.4421 28.1865 72.4054 28.1704 72.3408 28.1058L69.5123 30.9342C70.3218 31.7437 71.3566 32.2 72.5266 32.2V28.2ZM72.3408 28.1058C72.2762 28.0412 72.2601 28.0045 72.2572 27.9977C72.2551 27.9927 72.2466 27.9738 72.2466 27.92H68.2466C68.2466 29.0899 68.7029 30.1247 69.5123 30.9342L72.3408 28.1058ZM72.2466 27.92V27.28H68.2466V27.92H72.2466ZM72.2466 27.28C72.2466 27.2262 72.2551 27.2073 72.2572 27.2023C72.2601 27.1955 72.2762 27.1588 72.3408 27.0942L69.5123 24.2658C68.7029 25.0753 68.2466 26.1101 68.2466 27.28H72.2466ZM72.3408 27.0942C72.4054 27.0296 72.4421 27.0135 72.4488 27.0107C72.4538 27.0085 72.4728 27 72.5266 27V23C71.3566 23 70.3218 23.4563 69.5123 24.2658L72.3408 27.0942ZM72.5266 27H74.0866V23H72.5266V27ZM74.0866 27C74.5149 27 75.2034 26.8916 75.7708 26.3242C76.3381 25.7569 76.4466 25.0683 76.4466 24.64H72.4466C72.4466 24.4517 72.495 23.9431 72.9423 23.4958C73.3897 23.0484 73.8983 23 74.0866 23V27ZM76.4466 24.64V19.68H72.4466V24.64H76.4466ZM76.4466 19.68C76.4466 19.6262 76.4551 19.6073 76.4572 19.6023C76.4601 19.5955 76.4762 19.5588 76.5408 19.4942L73.7123 16.6658C72.9029 17.4753 72.4466 18.5101 72.4466 19.68H76.4466ZM76.5408 19.4942C76.6054 19.4296 76.6421 19.4135 76.6488 19.4107C76.6538 19.4085 76.6728 19.4 76.7266 19.4V15.4C75.5566 15.4 74.5218 15.8563 73.7123 16.6658L76.5408 19.4942ZM76.7266 19.4H79.7666V15.4H76.7266V19.4ZM79.7666 19.4C79.8204 19.4 79.8393 19.4085 79.8443 19.4107C79.851 19.4135 79.8877 19.4296 79.9523 19.4942L82.7808 16.6658C81.9713 15.8563 80.9365 15.4 79.7666 15.4V19.4ZM79.9523 19.4942C80.017 19.5588 80.033 19.5955 80.0359 19.6023C80.038 19.6073 80.0466 19.6262 80.0466 19.68H84.0466C84.0466 18.5101 83.5903 17.4753 82.7808 16.6658L79.9523 19.4942ZM80.0466 19.68V24.64H84.0466V19.68H80.0466ZM80.0466 24.64C80.0466 25.0683 80.155 25.7569 80.7223 26.3242C81.2897 26.8916 81.9783 27 82.4066 27V23C82.5949 23 83.1034 23.0484 83.5508 23.4958C83.9981 23.9431 84.0466 24.4517 84.0466 24.64H80.0466ZM82.4066 27H85.9666V23H82.4066V27ZM99.8472 38.96L98.1275 39.9811L98.1346 39.9932L98.142 40.0051L99.8472 38.96ZM104.727 38.96L106.432 40.0051L106.44 39.9932L106.447 39.9811L104.727 38.96ZM104.727 30.28L103.007 31.3011L103.015 31.3132L103.022 31.3251L104.727 30.28ZM99.8472 30.28L101.552 31.3251L101.56 31.3132L101.567 31.3011L99.8472 30.28ZM94.3272 26.68L95.7414 28.0942L95.7513 28.0843L94.3272 26.68ZM110.247 26.68L108.823 28.0843L108.833 28.0942L110.247 26.68ZM110.247 42.56L111.661 43.9742L111.671 43.9643L110.247 42.56ZM94.3272 42.56L92.9031 43.9643L92.913 43.9742L94.3272 42.56ZM98.142 40.0051C99.0743 41.5262 100.599 42.2 102.287 42.2V38.2C101.735 38.2 101.633 38.0471 101.552 37.9149L98.142 40.0051ZM102.287 42.2C103.975 42.2 105.5 41.5262 106.432 40.0051L103.022 37.9149C102.941 38.0471 102.839 38.2 102.287 38.2V42.2ZM106.447 39.9811C107.248 38.6318 107.487 36.7037 107.487 34.6H103.487C103.487 36.6029 103.22 37.5816 103.007 37.9389L106.447 39.9811ZM107.487 34.6C107.487 32.5064 107.251 30.5712 106.432 29.2349L103.022 31.3251C103.216 31.6421 103.487 32.5869 103.487 34.6H107.487ZM106.447 29.2589C105.528 27.7108 104.004 27 102.287 27V31C102.81 31 102.913 31.1426 103.007 31.3011L106.447 29.2589ZM102.287 27C100.57 27 99.0467 27.7108 98.1275 29.2589L101.567 31.3011C101.661 31.1426 101.764 31 102.287 31V27ZM98.142 29.2349C97.3229 30.5712 97.0872 32.5064 97.0872 34.6H101.087C101.087 32.5869 101.358 31.6421 101.552 31.3251L98.142 29.2349ZM97.0872 34.6C97.0872 36.7037 97.3263 38.6318 98.1275 39.9811L101.567 37.9389C101.355 37.5816 101.087 36.6029 101.087 34.6H97.0872ZM95.7513 28.0843C97.1751 26.6404 99.2591 25.8 102.287 25.8V21.8C98.4886 21.8 95.266 22.8796 92.9031 25.2757L95.7513 28.0843ZM102.287 25.8C105.315 25.8 107.399 26.6404 108.823 28.0843L111.671 25.2757C109.308 22.8796 106.086 21.8 102.287 21.8V25.8ZM108.833 28.0942C110.258 29.5195 111.087 31.596 111.087 34.6H115.087C115.087 30.8307 114.023 27.6272 111.661 25.2658L108.833 28.0942ZM111.087 34.6C111.087 37.6026 110.259 39.6999 108.823 41.1557L111.671 43.9643C114.022 41.5801 115.087 38.3707 115.087 34.6H111.087ZM108.833 41.1458C107.411 42.5682 105.323 43.4 102.287 43.4V47.4C106.078 47.4 109.297 46.3385 111.661 43.9742L108.833 41.1458ZM102.287 43.4C99.2513 43.4 97.1638 42.5682 95.7414 41.1458L92.913 43.9742C95.2772 46.3385 98.4964 47.4 102.287 47.4V43.4ZM95.7513 41.1557C94.3157 39.6999 93.4872 37.6026 93.4872 34.6H89.4872C89.4872 38.3707 90.552 41.5801 92.9031 43.9643L95.7513 41.1557ZM93.4872 34.6C93.4872 31.596 94.3161 29.5195 95.7414 28.0942L92.913 25.2658C90.5516 27.6272 89.4872 30.8307 89.4872 34.6H93.4872ZM131.235 24.28L130.977 22.2968L130.976 22.2969L131.235 24.28ZM132.835 24.84L131.421 26.2542L131.421 26.2542L132.835 24.84ZM132.875 29.12L134.29 30.5342L134.311 30.5128L134.332 30.4907L132.875 29.12ZM131.275 29.88L131.027 27.8954L131.018 27.8967L131.275 29.88ZM126.355 32.2L127.785 33.5989L127.792 33.5914L127.799 33.5838L126.355 32.2ZM123.835 44.32L125.25 45.7342L123.835 44.32ZM117.395 44.32L118.81 42.9058L118.81 42.9058L117.395 44.32ZM117.395 24.88L118.81 26.2942L118.81 26.2942L117.395 24.88ZM123.635 24.88L122.221 26.2942L122.221 26.2942L123.635 24.88ZM124.435 28.16L125.85 29.5742L125.946 29.4778L126.028 29.3692L124.435 28.16ZM131.494 26.2632C131.511 26.261 131.51 26.2628 131.495 26.2614C131.479 26.2599 131.458 26.2559 131.435 26.2477C131.412 26.2396 131.397 26.2311 131.392 26.2279C131.388 26.2252 131.398 26.2311 131.421 26.2542L134.25 23.4258C133.376 22.5521 132.231 22.1331 130.977 22.2968L131.494 26.2632ZM131.421 26.2542C131.478 26.3109 131.493 26.3447 131.498 26.356C131.503 26.3673 131.515 26.4013 131.515 26.48H135.515C135.515 25.3085 135.077 24.2535 134.25 23.4258L131.421 26.2542ZM131.515 26.48V27.52H135.515V26.48H131.515ZM131.515 27.52C131.515 27.6154 131.502 27.6607 131.419 27.7493L134.332 30.4907C135.102 29.6726 135.515 28.6512 135.515 27.52H131.515ZM131.461 27.7058C131.371 27.7956 131.258 27.8665 131.027 27.8954L131.523 31.8646C132.572 31.7335 133.526 31.2978 134.29 30.5342L131.461 27.7058ZM131.018 27.8967C128.592 28.2117 126.505 29.1534 124.911 30.8162L127.799 33.5838C128.659 32.6866 129.852 32.0816 131.533 31.8633L131.018 27.8967ZM124.926 30.8011C123.32 32.4421 122.515 34.4835 122.515 36.8H126.515C126.515 35.4899 126.937 34.4646 127.785 33.5989L124.926 30.8011ZM122.515 36.8V42.72H126.515V36.8H122.515ZM122.515 42.72C122.515 42.7738 122.507 42.7927 122.505 42.7977C122.502 42.8045 122.486 42.8412 122.421 42.9058L125.25 45.7342C126.059 44.9247 126.515 43.8899 126.515 42.72H122.515ZM122.421 42.9058C122.356 42.9704 122.32 42.9865 122.313 42.9893C122.308 42.9915 122.289 43 122.235 43V47C123.405 47 124.44 46.5437 125.25 45.7342L122.421 42.9058ZM122.235 43H118.995V47H122.235V43ZM118.995 43C118.942 43 118.923 42.9915 118.918 42.9893C118.911 42.9865 118.874 42.9704 118.81 42.9058L115.981 45.7342C116.791 46.5437 117.825 47 118.995 47V43ZM118.81 42.9058C118.745 42.8412 118.729 42.8045 118.726 42.7977C118.724 42.7927 118.715 42.7738 118.715 42.72H114.715C114.715 43.8899 115.172 44.9247 115.981 45.7342L118.81 42.9058ZM118.715 42.72V26.48H114.715V42.72H118.715ZM118.715 26.48C118.715 26.4262 118.724 26.4073 118.726 26.4023C118.729 26.3955 118.745 26.3588 118.81 26.2942L115.981 23.4658C115.172 24.2753 114.715 25.3101 114.715 26.48H118.715ZM118.81 26.2942C118.874 26.2296 118.911 26.2135 118.918 26.2107C118.923 26.2085 118.942 26.2 118.995 26.2V22.2C117.825 22.2 116.791 22.6563 115.981 23.4658L118.81 26.2942ZM118.995 26.2H122.035V22.2H118.995V26.2ZM122.035 26.2C122.089 26.2 122.108 26.2085 122.113 26.2107C122.12 26.2135 122.156 26.2296 122.221 26.2942L125.05 23.4658C124.24 22.6563 123.205 22.2 122.035 22.2V26.2ZM122.221 26.2942C122.286 26.3588 122.302 26.3955 122.305 26.4023C122.307 26.4073 122.315 26.4262 122.315 26.48H126.315C126.315 25.3101 125.859 24.2753 125.05 23.4658L122.221 26.2942ZM122.315 26.48V28.16H126.315V26.48H122.315ZM122.315 28.16C122.315 28.4816 122.397 29.0902 122.911 29.6042C123.425 30.1182 124.034 30.2 124.355 30.2V26.2C124.65 26.2 125.239 26.2751 125.74 26.7758C126.24 27.2765 126.315 27.8651 126.315 28.16H122.315ZM124.355 30.2C125.1 30.2 125.605 29.8189 125.85 29.5742L123.021 26.7458C123.212 26.5545 123.664 26.2 124.355 26.2V30.2ZM126.028 29.3692C127.372 27.5984 129.15 26.5698 131.495 26.2631L130.976 22.2969C127.614 22.7368 124.858 24.295 122.842 26.9508L126.028 29.3692ZM145.89 24.88L144.476 26.2942L144.476 26.2942L145.89 24.88ZM145.89 44.32L144.476 42.9058L144.476 42.9058L145.89 44.32ZM139.25 44.32L137.836 45.7342L137.836 45.7342L139.25 44.32ZM139.25 24.88L140.664 26.2942L140.664 26.2942L139.25 24.88ZM145.89 15.68L144.476 17.0942L144.476 17.0942L145.89 15.68ZM145.89 19.92L144.476 18.5058L144.476 18.5058L145.89 19.92ZM139.25 19.92L137.836 21.3342L137.836 21.3342L139.25 19.92ZM139.25 15.68L137.836 14.2658L137.836 14.2658L139.25 15.68ZM144.29 26.2C144.344 26.2 144.363 26.2085 144.368 26.2107C144.374 26.2135 144.411 26.2296 144.476 26.2942L147.304 23.4658C146.495 22.6563 145.46 22.2 144.29 22.2V26.2ZM144.476 26.2942C144.54 26.3588 144.556 26.3955 144.559 26.4023C144.561 26.4073 144.57 26.4262 144.57 26.48H148.57C148.57 25.3101 148.114 24.2753 147.304 23.4658L144.476 26.2942ZM144.57 26.48V42.72H148.57V26.48H144.57ZM144.57 42.72C144.57 42.7738 144.561 42.7927 144.559 42.7977C144.556 42.8045 144.54 42.8412 144.476 42.9058L147.304 45.7342C148.114 44.9247 148.57 43.8899 148.57 42.72H144.57ZM144.476 42.9058C144.411 42.9704 144.374 42.9865 144.368 42.9893C144.363 42.9915 144.344 43 144.29 43V47C145.46 47 146.495 46.5437 147.304 45.7342L144.476 42.9058ZM144.29 43H140.85V47H144.29V43ZM140.85 43C140.796 43 140.777 42.9915 140.772 42.9893C140.766 42.9865 140.729 42.9704 140.664 42.9058L137.836 45.7342C138.645 46.5437 139.68 47 140.85 47V43ZM140.664 42.9058C140.6 42.8412 140.584 42.8045 140.581 42.7977C140.579 42.7927 140.57 42.7738 140.57 42.72H136.57C136.57 43.8899 137.026 44.9247 137.836 45.7342L140.664 42.9058ZM140.57 42.72V26.48H136.57V42.72H140.57ZM140.57 26.48C140.57 26.4262 140.579 26.4073 140.581 26.4023C140.584 26.3955 140.6 26.3588 140.664 26.2942L137.836 23.4658C137.026 24.2753 136.57 25.3101 136.57 26.48H140.57ZM140.664 26.2942C140.729 26.2296 140.766 26.2135 140.772 26.2107C140.777 26.2085 140.796 26.2 140.85 26.2V22.2C139.68 22.2 138.645 22.6563 137.836 23.4658L140.664 26.2942ZM140.85 26.2H144.29V22.2H140.85V26.2ZM144.29 17C144.344 17 144.363 17.0085 144.368 17.0107C144.374 17.0135 144.411 17.0296 144.476 17.0942L147.304 14.2658C146.495 13.4563 145.46 13 144.29 13V17ZM144.476 17.0942C144.54 17.1588 144.556 17.1955 144.559 17.2023C144.561 17.2073 144.57 17.2262 144.57 17.28H148.57C148.57 16.1101 148.114 15.0753 147.304 14.2658L144.476 17.0942ZM144.57 17.28V18.32H148.57V17.28H144.57ZM144.57 18.32C144.57 18.3738 144.561 18.3927 144.559 18.3977C144.556 18.4045 144.54 18.4412 144.476 18.5058L147.304 21.3342C148.114 20.5247 148.57 19.4899 148.57 18.32H144.57ZM144.476 18.5058C144.411 18.5704 144.374 18.5865 144.368 18.5893C144.363 18.5915 144.344 18.6 144.29 18.6V22.6C145.46 22.6 146.495 22.1437 147.304 21.3342L144.476 18.5058ZM144.29 18.6H140.85V22.6H144.29V18.6ZM140.85 18.6C140.796 18.6 140.777 18.5915 140.772 18.5893C140.766 18.5865 140.729 18.5704 140.664 18.5058L137.836 21.3342C138.645 22.1437 139.68 22.6 140.85 22.6V18.6ZM140.664 18.5058C140.6 18.4412 140.584 18.4045 140.581 18.3977C140.579 18.3927 140.57 18.3738 140.57 18.32H136.57C136.57 19.4899 137.026 20.5247 137.836 21.3342L140.664 18.5058ZM140.57 18.32V17.28H136.57V18.32H140.57ZM140.57 17.28C140.57 17.2262 140.579 17.2073 140.581 17.2023C140.584 17.1955 140.6 17.1588 140.664 17.0942L137.836 14.2658C137.026 15.0753 136.57 16.1101 136.57 17.28H140.57ZM140.664 17.0942C140.729 17.0296 140.766 17.0135 140.772 17.0107C140.777 17.0085 140.796 17 140.85 17V13C139.68 13 138.645 13.4563 137.836 14.2658L140.664 17.0942ZM140.85 17H144.29V13H140.85V17ZM164.818 32.24H166.818V32.2183L166.818 32.1965L164.818 32.24ZM164.018 29.6L162.532 30.9379L162.55 30.958L162.568 30.9775L164.018 29.6ZM159.458 29.6L160.873 31.0142L160.873 31.0142L159.458 29.6ZM158.498 32.28L156.509 32.0728L156.498 32.1761V32.28H158.498ZM171.818 34.52L173.818 34.52L173.818 34.5125L171.818 34.52ZM171.098 36.16L172.427 37.6548L172.45 37.6348L172.472 37.614L171.098 36.16ZM158.618 37.16L160.574 36.7409L160.572 36.7335L160.571 36.7261L158.618 37.16ZM160.178 39.52L159.192 41.26L159.205 41.2669L159.217 41.2736L160.178 39.52ZM168.018 39.72L168.417 41.6799L168.449 41.6733L168.482 41.6656L168.018 39.72ZM169.538 40.08L168.267 41.6239L168.295 41.6468L168.324 41.6687L169.538 40.08ZM169.578 43.96L167.988 42.7479L167.983 42.7539L167.978 42.76L169.578 43.96ZM168.018 44.92L167.69 42.9472L167.661 42.952L167.632 42.9576L168.018 44.92ZM154.058 42.64L152.703 44.1111L152.714 44.1203L152.724 44.1295L154.058 42.64ZM153.738 26.6L155.173 27.9936L155.173 27.9936L153.738 26.6ZM164.458 34.6C164.887 34.6 165.575 34.4916 166.143 33.9242C166.71 33.3569 166.818 32.6683 166.818 32.24H162.818C162.818 32.0517 162.867 31.5431 163.314 31.0958C163.762 30.6484 164.27 30.6 164.458 30.6V34.6ZM166.818 32.1965C166.787 30.7822 166.484 29.2915 165.468 28.2225L162.568 30.9775C162.56 30.9687 162.619 31.0255 162.684 31.24C162.751 31.4589 162.808 31.7954 162.819 32.2835L166.818 32.1965ZM165.505 28.2621C164.52 27.1671 163.151 26.8 161.818 26.8V30.8C162.138 30.8 162.327 30.8438 162.425 30.8796C162.511 30.9109 162.53 30.9358 162.532 30.9379L165.505 28.2621ZM161.818 26.8C160.453 26.8 159.076 27.1537 158.044 28.1858L160.873 31.0142C160.907 30.9796 161.104 30.8 161.818 30.8V26.8ZM158.044 28.1858C157.041 29.1894 156.656 30.6592 156.509 32.0728L160.488 32.4872C160.543 31.9542 160.631 31.5776 160.721 31.3245C160.812 31.0698 160.885 31.0024 160.873 31.0142L158.044 28.1858ZM156.498 32.28C156.498 32.695 156.604 33.3735 157.164 33.9342C157.725 34.4949 158.403 34.6 158.818 34.6V30.6C159.02 30.6 159.539 30.6518 159.993 31.1058C160.447 31.5598 160.498 32.0784 160.498 32.28H156.498ZM158.818 34.6H164.458V30.6H158.818V34.6ZM161.618 25.8C164.668 25.8 166.601 26.5991 167.8 27.8586C169.017 29.1381 169.806 31.2371 169.818 34.5275L173.818 34.5125C173.804 30.6562 172.88 27.3953 170.697 25.1014C168.496 22.7876 165.342 21.8 161.618 21.8V25.8ZM169.818 34.52C169.818 34.5834 169.808 34.604 169.807 34.606C169.806 34.6094 169.791 34.6436 169.725 34.706L172.472 37.614C173.337 36.7964 173.818 35.7296 173.818 34.52H169.818ZM169.77 34.6652C169.671 34.7531 169.576 34.8 169.378 34.8V38.8C170.514 38.8 171.566 38.4202 172.427 37.6548L169.77 34.6652ZM169.378 34.8H158.898V38.8H169.378V34.8ZM158.898 34.8C158.521 34.8 157.672 34.8879 157.07 35.6621C156.481 36.4191 156.589 37.2466 156.666 37.5939L160.571 36.7261C160.595 36.8334 160.723 37.4809 160.227 38.1179C159.718 38.7721 159.036 38.8 158.898 38.8V34.8ZM156.663 37.5791C156.991 39.1097 157.777 40.4582 159.192 41.26L161.164 37.78C160.979 37.6751 160.726 37.4503 160.574 36.7409L156.663 37.5791ZM159.217 41.2736C160.493 41.9738 162.187 42.2 164.018 42.2V38.2C162.383 38.2 161.517 37.9729 161.14 37.7664L159.217 41.2736ZM164.018 42.2C165.292 42.2 166.767 42.0154 168.417 41.6799L167.62 37.7601C166.123 38.0646 164.932 38.2 164.018 38.2V42.2ZM168.482 41.6656C168.489 41.6638 168.479 41.667 168.453 41.6673C168.427 41.6677 168.394 41.6648 168.358 41.6562C168.321 41.6476 168.293 41.6359 168.274 41.6264C168.257 41.6172 168.254 41.6135 168.267 41.6239L170.81 38.5361C169.885 37.7741 168.739 37.4926 167.555 37.7744L168.482 41.6656ZM168.324 41.6687C168.328 41.6724 168.318 41.6654 168.302 41.6453C168.284 41.6247 168.266 41.5969 168.249 41.5638C168.214 41.4912 168.218 41.4496 168.218 41.48H172.218C172.218 40.2908 171.718 39.2286 170.753 38.4913L168.324 41.6687ZM168.218 41.48V42.12H172.218V41.48H168.218ZM168.218 42.12C168.218 42.3232 168.165 42.5154 167.988 42.7479L171.169 45.1721C171.845 44.2846 172.218 43.2501 172.218 42.12H168.218ZM167.978 42.76C167.878 42.8944 167.807 42.9277 167.69 42.9472L168.347 46.8928C169.51 46.699 170.479 46.0922 171.178 45.16L167.978 42.76ZM167.632 42.9576C166.146 43.25 164.543 43.4 162.818 43.4V47.4C164.774 47.4 166.638 47.23 168.404 46.8824L167.632 42.9576ZM162.818 43.4C159.339 43.4 156.962 42.5563 155.393 41.1505L152.724 44.1295C155.262 46.4037 158.724 47.4 162.818 47.4V43.4ZM155.413 41.1689C153.902 39.7769 153.018 37.6939 153.018 34.6H149.018C149.018 38.4928 150.161 41.7697 152.703 44.1111L155.413 41.1689ZM153.018 34.6C153.018 31.4759 153.83 29.3764 155.173 27.9936L152.304 25.2064C150.021 27.557 149.018 30.7907 149.018 34.6H153.018ZM155.173 27.9936C156.5 26.6276 158.538 25.8 161.618 25.8V21.8C157.819 21.8 154.604 22.839 152.304 25.2064L155.173 27.9936ZM184.661 31.6L184.922 29.6171L184.902 29.6145L184.881 29.6122L184.661 31.6ZM191.141 33.92L189.806 35.4097L189.815 35.4175L189.824 35.4252L191.141 33.92ZM190.781 43.68L191.985 45.2766L191.985 45.2766L190.781 43.68ZM177.461 44.76L177.053 46.718L177.067 46.721L177.082 46.7238L177.461 44.76ZM175.861 43.76L174.261 44.96L174.279 44.985L174.299 45.0094L175.861 43.76ZM175.941 39.56L174.787 37.9261L174.787 37.9261L175.941 39.56ZM177.421 39.28L176.936 41.2203L176.945 41.2226L176.954 41.2248L177.421 39.28ZM184.901 37.84L183.673 39.4187L183.673 39.4187L184.901 37.84ZM183.461 37.4L183.14 39.3742L183.154 39.3764L183.168 39.3784L183.461 37.4ZM177.021 34.92L175.684 36.4081L175.692 36.4148L175.699 36.4214L177.021 34.92ZM177.381 25.48L176.221 23.8507L176.214 23.8554L176.208 23.8601L177.381 25.48ZM190.221 24.2L190.537 22.2251L190.528 22.2238L190.52 22.2226L190.221 24.2ZM191.821 25.12L190.251 26.3593L190.27 26.3841L190.291 26.4083L191.821 25.12ZM191.741 29.12L192.956 30.7087L192.962 30.7037L192.969 30.6987L191.741 29.12ZM190.221 29.48L189.835 31.4424L189.846 31.4447L190.221 29.48ZM183.381 29.28L182.432 27.5191L182.432 27.5191L183.381 29.28ZM184.4 33.5829C187.314 33.9664 188.981 34.6706 189.806 35.4097L192.475 32.4303C190.74 30.876 188.087 30.0336 184.922 29.6171L184.4 33.5829ZM189.824 35.4252C190.563 36.0724 191.061 37.0853 191.061 38.8H195.061C195.061 36.2481 194.278 34.0076 192.458 32.4148L189.824 35.4252ZM191.061 38.8C191.061 40.356 190.537 41.3587 189.576 42.0834L191.985 45.2766C194.064 43.708 195.061 41.4573 195.061 38.8H191.061ZM189.576 42.0834C188.548 42.8588 186.812 43.4 184.061 43.4V47.4C187.229 47.4 189.973 46.7946 191.985 45.2766L189.576 42.0834ZM184.061 43.4C182.005 43.4 179.932 43.1995 177.839 42.7962L177.082 46.7238C179.416 47.1738 181.743 47.4 184.061 47.4V43.4ZM177.869 42.802C177.705 42.7681 177.573 42.6984 177.422 42.5106L174.299 45.0094C175.002 45.8883 175.936 46.4853 177.053 46.718L177.869 42.802ZM177.461 42.56C177.331 42.3874 177.261 42.1991 177.261 41.92H173.261C173.261 43.0275 173.59 44.0659 174.261 44.96L177.461 42.56ZM177.261 41.92V40.88H173.261V41.92H177.261ZM177.261 40.88C177.261 40.8764 177.259 40.9473 177.209 41.0459C177.185 41.0913 177.158 41.1285 177.134 41.1561C177.11 41.183 177.093 41.1945 177.094 41.1939L174.787 37.9261C173.797 38.6249 173.261 39.6773 173.261 40.88H177.261ZM177.094 41.1939C177.105 41.1863 177.103 41.189 177.088 41.1954C177.073 41.202 177.051 41.2098 177.022 41.2151C176.994 41.2205 176.969 41.2217 176.95 41.221C176.932 41.2203 176.926 41.218 176.936 41.2203L177.906 37.3397C176.802 37.0637 175.711 37.274 174.787 37.9261L177.094 41.1939ZM176.954 41.2248C179.082 41.7355 181.12 42 183.061 42V38C181.482 38 179.759 37.7845 177.887 37.3352L176.954 41.2248ZM183.061 42C183.922 42 184.896 41.8862 185.716 41.4087C186.703 40.8347 187.261 39.8537 187.261 38.72H183.261C183.261 38.6399 183.28 38.4731 183.388 38.2858C183.495 38.0979 183.631 37.9943 183.705 37.9513C183.766 37.9157 183.764 37.933 183.642 37.9566C183.524 37.9795 183.336 38 183.061 38V42ZM187.261 38.72C187.261 37.9137 187.001 36.9398 186.129 36.2613L183.673 39.4187C183.505 39.2881 183.386 39.1199 183.32 38.9573C183.289 38.8829 183.274 38.8217 183.267 38.7811C183.264 38.7608 183.262 38.7453 183.261 38.7352C183.261 38.7301 183.261 38.7263 183.261 38.7238C183.261 38.7225 183.261 38.7216 183.261 38.7209C183.261 38.7206 183.261 38.7204 183.261 38.7202C183.261 38.7202 183.261 38.7201 183.261 38.7201C183.261 38.72 183.261 38.72 183.261 38.72C183.261 38.7202 183.261 38.7198 183.261 38.72C183.261 38.7202 183.261 38.7198 183.261 38.72H187.261ZM186.129 36.2613C185.731 35.9524 185.287 35.7816 184.945 35.6773C184.578 35.5651 184.173 35.4836 183.754 35.4216L183.168 39.3784C183.469 39.423 183.663 39.4683 183.776 39.5027C183.831 39.5193 183.847 39.5277 183.835 39.5224C183.827 39.5185 183.762 39.4885 183.673 39.4187L186.129 36.2613ZM183.781 35.4258C180.965 34.9692 179.259 34.2256 178.342 33.4186L175.699 36.4214C177.449 37.961 180.036 38.8708 183.14 39.3742L183.781 35.4258ZM178.357 33.4319C177.527 32.6871 177.061 31.6836 177.061 30.2H173.061C173.061 32.6631 173.9 34.8062 175.684 36.4081L178.357 33.4319ZM177.061 30.2C177.061 28.7685 177.563 27.8175 178.554 27.0999L176.208 23.8601C174.105 25.3825 173.061 27.5781 173.061 30.2H177.061ZM178.54 27.1093C179.622 26.3395 181.491 25.8 184.461 25.8V21.8C181.137 21.8 178.286 22.3805 176.221 23.8507L178.54 27.1093ZM184.461 25.8C186.457 25.8 188.275 25.928 189.921 26.1774L190.52 22.2226C188.646 21.9386 186.625 21.8 184.461 21.8V25.8ZM189.905 26.1749C190.101 26.2063 190.177 26.2658 190.251 26.3593L193.39 23.8807C192.664 22.9608 191.674 22.407 190.537 22.2251L189.905 26.1749ZM190.291 26.4083C190.412 26.5518 190.461 26.6814 190.461 26.88H194.461C194.461 25.7453 194.083 24.7015 193.35 23.8317L190.291 26.4083ZM190.461 26.88V27.72H194.461V26.88H190.461ZM190.461 27.72C190.461 27.7162 190.461 27.6971 190.468 27.6672C190.475 27.6368 190.487 27.605 190.502 27.5753C190.535 27.5119 190.559 27.505 190.513 27.5413L192.969 30.6987C193.888 29.9839 194.461 28.9557 194.461 27.72H190.461ZM190.526 27.5313C190.511 27.5423 190.508 27.5428 190.516 27.5388C190.525 27.5345 190.54 27.5285 190.56 27.5238C190.579 27.5192 190.596 27.5178 190.606 27.5177C190.615 27.5175 190.612 27.5186 190.595 27.5153L189.846 31.4447C190.966 31.658 192.051 31.4007 192.956 30.7087L190.526 27.5313ZM190.607 27.5176C188.849 27.1719 187.053 27 185.221 27V31C186.802 31 188.339 31.1481 189.835 31.4424L190.607 27.5176ZM185.221 27C184.323 27 183.258 27.0743 182.432 27.5191L184.329 31.0409C184.219 31.1003 184.206 31.0769 184.402 31.0472C184.577 31.0205 184.843 31 185.221 31V27ZM182.432 27.5191C181.967 27.7696 181.543 28.1463 181.249 28.6659C180.961 29.1769 180.861 29.7144 180.861 30.2H184.861C184.861 30.259 184.847 30.4298 184.732 30.6341C184.611 30.8471 184.447 30.9771 184.329 31.0409L182.432 27.5191ZM180.861 30.2C180.861 31.1796 181.267 32.094 182.083 32.7287C182.798 33.2853 183.669 33.5021 184.44 33.5878L184.881 29.6122C184.686 29.5905 184.567 29.5605 184.506 29.5401C184.445 29.5198 184.471 29.5191 184.539 29.5713C184.614 29.6302 184.71 29.7333 184.781 29.8813C184.849 30.0261 184.861 30.1458 184.861 30.2H180.861Z" fill="#333333" mask="url(#path-1-outside-1_489_493)"/>
</svg>
