<svg xmlns="http://www.w3.org/2000/svg" height="48" viewBox="0 -960 960 960" width="48"><path d="M356-328h248v-.836q0-30.664-32.069-46.914t-92-16.25Q420-392 388-375.75t-32 46.914v.836Zm123.708-144q22.055 0 37.173-14.827Q532-501.653 532-523.708t-14.827-37.173Q502.347-576 480.292-576t-37.173 14.827Q428-546.347 428-524.292t14.827 37.173Q457.653-472 479.708-472ZM185.78-172q-22.024 0-37.902-15.878T132-225.863v-426.774q0-22.332 15.878-38.097Q163.756-706.5 186-706.5h122l74.022-81.5h196.071L652-706.5h122q22.469 0 38.234 15.766Q828-674.969 828-652.637v426.774q0 22.107-15.766 37.985Q796.469-172 774.22-172H185.78Zm.22-22h588q14 0 23-9t9-23v-426.5q0-12.5-9-22.25t-23-9.75H642.013L568.019-766H392.648L318-684.5H186q-14 0-23 9.75t-9 22.25V-226q0 14 9 23t23 9Zm294-245.5Z"/></svg>