<svg width="213" height="69" viewBox="0 0 213 69" fill="none" xmlns="http://www.w3.org/2000/svg">
<g clip-path="url(#clip0_353_1068)">
<path d="M20.11 61.14C19.4133 61.3233 18.79 61.14 18.24 60.59C17.7267 60.04 17.36 59.2333 17.14 58.17C16.92 57.1067 16.9567 55.8967 17.25 54.54C17.4333 54.1 17.58 53.66 17.69 53.22C17.8 52.8167 17.855 52.4867 17.855 52.23C17.9283 51.9367 18.1117 51.295 18.405 50.305C18.6983 49.2783 19.0467 48.105 19.45 46.785C19.89 45.465 20.3117 44.1633 20.715 42.88C21.155 41.56 21.5217 40.46 21.815 39.58C22.145 38.6633 22.3467 38.15 22.42 38.04C22.5667 38.04 22.695 37.9117 22.805 37.655C22.915 37.3983 22.97 37.1417 22.97 36.885C22.97 36.5917 23.025 36.2617 23.135 35.895C23.2817 35.5283 23.4283 35.2717 23.575 35.125C23.575 34.9417 23.6117 34.74 23.685 34.52C23.795 34.2633 23.85 34.0617 23.85 33.915C23.85 33.7683 23.8867 33.6217 23.96 33.475C24.07 33.3283 24.125 33.1817 24.125 33.035C24.345 32.6317 24.675 31.88 25.115 30.78C25.5917 29.6433 26.1233 28.3233 26.71 26.82C27.3333 25.28 27.9567 23.7033 28.58 22.09C29.2033 20.44 29.79 18.8817 30.34 17.415C30.89 15.9483 31.33 14.7383 31.66 13.785C31.99 12.8317 32.155 12.2817 32.155 12.135C32.155 11.8417 32.3567 11.5483 32.76 11.255C33.1633 10.925 33.5117 10.76 33.805 10.76C33.915 10.65 34.0433 10.5767 34.19 10.54C34.3733 10.5033 34.5383 10.485 34.685 10.485C34.685 10.485 34.7583 10.5583 34.905 10.705C35.0517 10.8517 35.2717 11.0717 35.565 11.365C35.8583 11.6217 36.17 12.0067 36.5 12.52C36.83 12.9967 36.995 13.455 36.995 13.895C36.995 14.3717 36.94 14.7933 36.83 15.16C36.72 15.5267 36.5 16.0583 36.17 16.755C35.84 17.4517 35.3267 18.5333 34.63 20C34.52 20.2933 34.3 20.8067 33.97 21.54C33.64 22.2733 33.2733 23.0983 32.87 24.015C32.5033 24.9317 32.1183 25.83 31.715 26.71C31.3483 27.5533 31.0367 28.2683 30.78 28.855C30.56 29.4417 30.45 29.7717 30.45 29.845C30.45 29.9917 30.3767 30.2117 30.23 30.505C30.12 30.7983 29.9917 31.165 29.845 31.605C29.6983 31.8983 29.4967 32.3383 29.24 32.925C28.9833 33.475 28.7083 34.08 28.415 34.74C28.1583 35.3633 27.9383 35.9133 27.755 36.39C27.5717 36.83 27.48 37.0867 27.48 37.16C27.48 37.3067 27.4617 37.4533 27.425 37.6C27.425 37.7467 27.3517 37.8933 27.205 38.04C27.0583 38.04 26.9667 38.15 26.93 38.37C26.93 38.5533 26.93 38.645 26.93 38.645C26.93 39.0117 26.6367 39.9833 26.05 41.56C25.7933 42.3667 25.4817 43.4117 25.115 44.695C24.7483 45.9783 24.345 47.3533 23.905 48.82C23.5017 50.25 23.1167 51.6433 22.75 53C22.3833 54.3933 22.0717 55.6033 21.815 56.63C21.595 57.6567 21.485 58.3717 21.485 58.775C21.485 59.655 21.32 60.2233 20.99 60.48C20.6967 60.7733 20.4033 60.9933 20.11 61.14ZM5.7 43.485C5.48 43.485 5.205 43.485 4.875 43.485C4.545 43.4483 4.17833 43.3567 3.775 43.21C3.225 43.21 2.785 43.1 2.455 42.88C2.125 42.66 1.88667 42.4217 1.74 42.165C1.33667 41.615 1.37333 41.2117 1.85 40.955C2.32667 40.6617 3.24333 40.4417 4.6 40.295C5.00333 40.185 5.82833 40.0933 7.075 40.02C8.32167 39.9467 9.78833 39.8917 11.475 39.855C13.1983 39.7817 14.995 39.7267 16.865 39.69C18.7717 39.6533 20.5867 39.635 22.31 39.635C24.07 39.5983 25.5917 39.58 26.875 39.58C28.195 39.5433 29.0933 39.525 29.57 39.525C30.5233 39.525 31.165 39.5983 31.495 39.745C31.825 39.8917 32.1917 40.1667 32.595 40.57C33.145 41.12 33.2733 41.6883 32.98 42.275C32.7233 42.8617 32.1733 43.0817 31.33 42.935C31.0733 42.9717 30.6517 43.0083 30.065 43.045C29.515 43.0817 28.91 43.1367 28.25 43.21C28.1033 43.21 27.4983 43.2283 26.435 43.265C25.4083 43.265 24.0883 43.2833 22.475 43.32C20.8983 43.32 19.2117 43.3383 17.415 43.375C15.655 43.375 13.9317 43.3933 12.245 43.43C10.595 43.43 9.18333 43.4483 8.01 43.485C6.83667 43.485 6.06667 43.485 5.7 43.485ZM6.47 61.14C5.77333 61.3233 5.15 61.14 4.6 60.59C4.08667 60.04 3.72 59.2333 3.5 58.17C3.28 57.1067 3.31667 55.8967 3.61 54.54C3.79333 54.1 3.94 53.66 4.05 53.22C4.16 52.8167 4.215 52.4867 4.215 52.23C4.28833 51.9367 4.47167 51.295 4.765 50.305C5.05833 49.2783 5.40667 48.105 5.81 46.785C6.25 45.465 6.67167 44.1633 7.075 42.88C7.515 41.56 7.88167 40.46 8.175 39.58C8.505 38.6633 8.70667 38.15 8.78 38.04C8.92667 38.04 9.055 37.9117 9.165 37.655C9.275 37.3983 9.33 37.1417 9.33 36.885C9.33 36.5917 9.385 36.2617 9.495 35.895C9.64167 35.5283 9.78833 35.2717 9.935 35.125C9.935 34.9417 9.97167 34.74 10.045 34.52C10.155 34.2633 10.21 34.0617 10.21 33.915C10.21 33.7683 10.2467 33.6217 10.32 33.475C10.43 33.3283 10.485 33.1817 10.485 33.035C10.705 32.6317 11.035 31.88 11.475 30.78C11.9517 29.6433 12.4833 28.3233 13.07 26.82C13.6933 25.28 14.3167 23.7033 14.94 22.09C15.5633 20.44 16.15 18.8817 16.7 17.415C17.25 15.9483 17.69 14.7383 18.02 13.785C18.35 12.8317 18.515 12.2817 18.515 12.135C18.515 11.8417 18.7167 11.5483 19.12 11.255C19.5233 10.925 19.8717 10.76 20.165 10.76C20.275 10.65 20.4033 10.5767 20.55 10.54C20.7333 10.5033 20.8983 10.485 21.045 10.485C21.045 10.485 21.1183 10.5583 21.265 10.705C21.4117 10.8517 21.6317 11.0717 21.925 11.365C22.2183 11.6217 22.53 12.0067 22.86 12.52C23.19 12.9967 23.355 13.455 23.355 13.895C23.355 14.3717 23.3 14.7933 23.19 15.16C23.08 15.5267 22.86 16.0583 22.53 16.755C22.2 17.4517 21.6867 18.5333 20.99 20C20.88 20.2933 20.66 20.8067 20.33 21.54C20 22.2733 19.6333 23.0983 19.23 24.015C18.8633 24.9317 18.4783 25.83 18.075 26.71C17.7083 27.5533 17.3967 28.2683 17.14 28.855C16.92 29.4417 16.81 29.7717 16.81 29.845C16.81 29.9917 16.7367 30.2117 16.59 30.505C16.48 30.7983 16.3517 31.165 16.205 31.605C16.0583 31.8983 15.8567 32.3383 15.6 32.925C15.3433 33.475 15.0683 34.08 14.775 34.74C14.5183 35.3633 14.2983 35.9133 14.115 36.39C13.9317 36.83 13.84 37.0867 13.84 37.16C13.84 37.3067 13.8217 37.4533 13.785 37.6C13.785 37.7467 13.7117 37.8933 13.565 38.04C13.4183 38.04 13.3267 38.15 13.29 38.37C13.29 38.5533 13.29 38.645 13.29 38.645C13.29 39.0117 12.9967 39.9833 12.41 41.56C12.1533 42.3667 11.8417 43.4117 11.475 44.695C11.1083 45.9783 10.705 47.3533 10.265 48.82C9.86167 50.25 9.47667 51.6433 9.11 53C8.74333 54.3933 8.43167 55.6033 8.175 56.63C7.955 57.6567 7.845 58.3717 7.845 58.775C7.845 59.655 7.68 60.2233 7.35 60.48C7.05667 60.7733 6.76333 60.9933 6.47 61.14ZM9.055 32.43C8.835 32.43 8.56 32.43 8.23 32.43C7.9 32.3933 7.53333 32.3017 7.13 32.155C6.58 32.155 6.14 32.0633 5.81 31.88C5.51667 31.66 5.29667 31.4217 5.15 31.165C4.74667 30.615 4.765 30.1933 5.205 29.9C5.68167 29.6067 6.59833 29.3867 7.955 29.24C8.35833 29.13 9.18333 29.0383 10.43 28.965C11.6767 28.8917 13.1617 28.8367 14.885 28.8C16.6083 28.7267 18.405 28.6717 20.275 28.635C22.1817 28.5983 23.9967 28.58 25.72 28.58C27.48 28.5433 29.0017 28.525 30.285 28.525C31.605 28.4883 32.5033 28.47 32.98 28.47C33.9333 28.47 34.575 28.5433 34.905 28.69C35.235 28.8367 35.6017 29.1117 36.005 29.515C36.555 30.065 36.6833 30.6333 36.39 31.22C36.0967 31.8067 35.5283 32.0267 34.685 31.88C34.4283 31.9167 34.025 31.9533 33.475 31.99C32.925 32.0267 32.32 32.0817 31.66 32.155C31.5133 32.155 30.9083 32.1733 29.845 32.21C28.8183 32.21 27.4983 32.2283 25.885 32.265C24.3083 32.265 22.6217 32.2833 20.825 32.32C19.0283 32.32 17.2867 32.3383 15.6 32.375C13.95 32.375 12.5383 32.3933 11.365 32.43C10.1917 32.43 9.42167 32.43 9.055 32.43ZM38.8377 53.33C37.591 52.8167 36.6743 52.285 36.0877 51.735C35.5377 51.1483 35.3177 50.635 35.4277 50.195C35.501 49.975 35.6293 49.7733 35.8127 49.59C35.996 49.4067 36.3993 49.3333 37.0227 49.37C37.6827 49.37 38.691 49.535 40.0477 49.865C40.451 49.865 40.8543 49.8467 41.2577 49.81C41.661 49.7733 42.0277 49.7183 42.3577 49.645C42.7243 49.5717 43.0177 49.48 43.2377 49.37C43.421 49.2967 43.476 49.205 43.4027 49.095C43.3293 48.9483 43.201 48.8017 43.0177 48.655C42.871 48.4717 42.706 48.3617 42.5227 48.325C42.3393 48.2517 42.1743 48.215 42.0277 48.215C41.9543 48.0317 41.7893 47.8483 41.5327 47.665C41.3127 47.4817 41.0377 47.28 40.7077 47.06C39.901 46.4 39.1677 45.8133 38.5077 45.3C37.8477 44.7867 37.591 44.4017 37.7377 44.145C37.7377 43.9983 37.7377 43.925 37.7377 43.925C37.7377 43.8883 37.7377 43.87 37.7377 43.87C37.481 43.87 37.2427 43.5217 37.0227 42.825C36.8027 42.0917 36.6927 41.4317 36.6927 40.845C36.6927 40.1117 36.8393 39.3783 37.1327 38.645C37.4627 37.9117 37.866 37.215 38.3427 36.555C38.856 35.895 39.3693 35.3083 39.8827 34.795C40.5793 34.135 41.3127 33.4933 42.0827 32.87C42.8893 32.21 43.751 31.6233 44.6677 31.11C45.621 30.5967 46.666 30.1933 47.8027 29.9C48.316 29.79 48.9027 29.735 49.5627 29.735C50.2227 29.735 50.6993 29.8267 50.9927 30.01C51.286 29.8267 51.6527 29.8817 52.0927 30.175C52.5327 30.4317 52.9727 30.7983 53.4127 31.275C53.8527 31.7517 54.1827 32.2283 54.4027 32.705C54.4027 33.145 54.3843 33.695 54.3477 34.355C54.3477 34.9783 54.311 35.5283 54.2377 36.005C54.1643 36.4817 53.9993 36.72 53.7427 36.72C53.7427 36.72 53.6877 36.7383 53.5777 36.775C53.5043 36.775 53.4677 36.8667 53.4677 37.05C53.4677 37.4167 53.1927 37.8383 52.6427 38.315C51.946 38.7917 51.286 39.1767 50.6627 39.47C50.0393 39.7633 49.5627 39.7817 49.2327 39.525C49.0127 39.3783 48.811 39.2317 48.6277 39.085C48.4443 38.9383 48.2793 38.755 48.1327 38.535C48.1327 38.535 48.0777 38.4617 47.9677 38.315C47.8943 38.1317 47.8577 37.9667 47.8577 37.82C47.8577 37.6733 47.9127 37.545 48.0227 37.435C48.1327 37.2883 48.1877 37.215 48.1877 37.215C48.701 36.7383 49.086 36.2983 49.3427 35.895C49.636 35.4917 49.8377 35.1433 49.9477 34.85C50.0577 34.52 50.1127 34.2633 50.1127 34.08C50.1127 33.86 50.0577 33.7317 49.9477 33.695C49.8743 33.6217 49.691 33.585 49.3977 33.585C49.2143 33.585 48.811 33.7317 48.1877 34.025C47.601 34.3183 46.9777 34.685 46.3177 35.125C45.6577 35.5283 45.1443 35.895 44.7777 36.225C44.631 36.4817 44.521 36.6467 44.4477 36.72C44.411 36.7933 44.3193 36.83 44.1727 36.83C44.1727 36.6833 44.081 36.7017 43.8977 36.885C43.7143 37.0683 43.4943 37.325 43.2377 37.655C42.981 37.985 42.7243 38.3333 42.4677 38.7C42.211 39.0667 42.0093 39.36 41.8627 39.58C41.826 39.91 41.7343 40.2217 41.5877 40.515C41.4777 40.7717 41.441 41.0467 41.4777 41.34C41.5143 41.7067 41.6977 42.055 42.0277 42.385C42.3577 42.715 42.8343 43.1367 43.4577 43.65C44.741 44.6033 45.6943 45.355 46.3177 45.905C46.9777 46.455 47.436 46.895 47.6927 47.225C47.9493 47.555 48.1143 47.885 48.1877 48.215C48.811 49.3517 48.8843 50.3417 48.4077 51.185C47.931 51.9917 47.1977 52.615 46.2077 53.055C45.841 53.2383 45.1993 53.4033 44.2827 53.55C43.366 53.7333 42.3943 53.8067 41.3677 53.77C40.3777 53.77 39.5343 53.6233 38.8377 53.33ZM74.5062 52.12C73.5895 52.56 72.6912 52.725 71.8112 52.615C70.9678 52.4683 70.2528 52.01 69.6662 51.24C69.1162 50.4333 68.8412 49.26 68.8412 47.72C68.8412 47.3167 68.8595 46.84 68.8962 46.29C68.9695 45.7033 69.0795 45.0983 69.2262 44.475C69.3728 43.815 69.5562 43.155 69.7762 42.495C69.8862 42.165 70.0328 41.835 70.2162 41.505C70.4362 41.175 70.4728 41.01 70.3262 41.01C70.1795 41.01 69.9962 41.1017 69.7762 41.285C69.5928 41.4683 69.4462 41.615 69.3362 41.725C68.4195 42.5317 67.5762 43.375 66.8062 44.255C66.0728 45.0983 65.4128 45.9417 64.8262 46.785C64.2762 47.5917 63.8362 48.3433 63.5062 49.04C63.2128 49.7367 63.0662 50.3233 63.0662 50.8C63.0662 51.35 62.7912 51.735 62.2412 51.955C61.6912 52.175 61.2145 52.1567 60.8112 51.9C60.1145 51.4967 59.4728 50.8733 58.8862 50.03C58.3362 49.1867 58.1162 48.0867 58.2262 46.73C58.3362 45.0067 58.4828 43.4667 58.6662 42.11C58.8495 40.7533 59.1428 39.2867 59.5462 37.71C59.9862 36.0967 60.5545 34.135 61.2512 31.825C61.7278 30.5417 62.1678 29.3317 62.5712 28.195C62.9745 27.0217 63.3228 26.0317 63.6162 25.225C63.9462 24.4183 64.1478 23.9233 64.2212 23.74C64.4045 23.5567 64.6428 23.1167 64.9362 22.42C65.2295 21.6867 65.4862 20.9533 65.7062 20.22C65.9628 19.4867 66.0912 19.0467 66.0912 18.9C66.0912 18.6067 66.1462 18.35 66.2562 18.13C66.4028 17.91 66.5312 17.7083 66.6412 17.525C66.8612 17.0117 67.0445 16.6633 67.1912 16.48C67.3745 16.26 67.5395 16.15 67.6862 16.15C67.8695 16.15 68.1628 16.2417 68.5662 16.425C69.0062 16.6083 69.4095 16.8467 69.7762 17.14C70.1795 17.3967 70.4178 17.6717 70.4912 17.965C70.7478 18.4783 70.8945 19.01 70.9312 19.56C70.9678 20.0733 70.8395 20.715 70.5462 21.485C70.2528 22.255 69.7395 23.3183 69.0062 24.675C68.4195 25.8117 67.8878 26.985 67.4112 28.195C66.9345 29.405 66.4762 30.67 66.0362 31.99C65.8528 32.54 65.6145 33.2733 65.3212 34.19C65.0278 35.07 64.7345 35.9867 64.4412 36.94C64.1845 37.8567 63.9645 38.6817 63.7812 39.415C63.5978 40.1483 63.5062 40.625 63.5062 40.845C63.5062 41.1017 63.6528 41.23 63.9462 41.23C64.2395 41.1933 64.5328 40.9733 64.8262 40.57C64.9728 40.2767 65.2112 40.0017 65.5412 39.745C65.8712 39.4517 66.1645 39.1583 66.4212 38.865C66.7145 38.4983 67.0628 38.0767 67.4662 37.6C67.9062 37.0867 68.3645 36.61 68.8412 36.17C69.3545 35.6933 69.8128 35.3083 70.2162 35.015C70.6562 34.7217 71.0228 34.575 71.3162 34.575C72.0128 34.575 72.5995 34.7767 73.0762 35.18C73.5528 35.5833 73.9562 36.2067 74.2862 37.05C74.3962 37.16 74.5062 37.3067 74.6162 37.49C74.7262 37.6367 74.7995 37.7467 74.8362 37.82C75.0195 37.9667 75.1112 38.5533 75.1112 39.58C75.1112 40.57 74.8178 41.945 74.2312 43.705C73.9012 45.0617 73.6995 46.07 73.6262 46.73C73.5895 47.39 73.7178 47.72 74.0112 47.72C74.0112 47.72 74.1945 47.61 74.5612 47.39C74.9645 47.17 75.3862 46.9317 75.8262 46.675C76.8895 45.9783 77.6595 45.7583 78.1362 46.015C78.6128 46.2717 78.8512 46.6017 78.8512 47.005C78.8512 47.335 78.7228 47.72 78.4662 48.16C78.2462 48.6 78.1362 48.8933 78.1362 49.04C78.1362 49.04 78.1362 49.0583 78.1362 49.095C78.1362 49.095 78.1362 49.1683 78.1362 49.315C78.1362 49.3883 77.8978 49.645 77.4212 50.085C76.9445 50.525 76.4128 50.965 75.8262 51.405C75.2762 51.8083 74.8362 52.0467 74.5062 52.12ZM84.1752 52.065C83.8818 51.7717 83.6618 51.3317 83.5152 50.745C83.4052 50.1583 83.3685 49.59 83.4052 49.04C83.4418 48.4533 83.5335 48.0133 83.6802 47.72C83.6802 47.4267 83.7168 47.2067 83.7902 47.06C83.9002 46.8767 83.9368 46.7117 83.9002 46.565C83.8635 46.4183 83.9002 46.1617 84.0102 45.795C84.1202 45.4283 84.2302 45.08 84.3402 44.75C84.5968 44.1633 84.8902 43.4117 85.2202 42.495C85.5502 41.5417 85.8802 40.5883 86.2102 39.635C86.5402 38.645 86.8152 37.8017 87.0352 37.105C87.2552 36.3717 87.3835 35.9317 87.4202 35.785C87.4202 35.345 87.7135 35.1067 88.3002 35.07C88.7402 34.9233 89.2718 35.1067 89.8952 35.62C90.5185 36.1333 91.0135 36.6833 91.3802 37.27C91.6735 37.5633 91.7835 37.9483 91.7102 38.425C91.6368 38.9017 91.3985 39.58 90.9952 40.46C90.8485 40.7533 90.6652 41.2483 90.4452 41.945C90.2618 42.605 90.1335 43.155 90.0602 43.595C89.9135 43.8883 89.7302 44.31 89.5102 44.86C89.3268 45.3733 89.1618 45.8683 89.0152 46.345C88.9418 46.5283 88.8685 46.8767 88.7952 47.39C88.7218 47.8667 88.6302 48.3617 88.5202 48.875C88.4102 49.3883 88.2635 49.7917 88.0802 50.085C87.7502 51.5883 87.1635 52.4683 86.3202 52.725C85.5135 52.9817 84.7985 52.7617 84.1752 52.065ZM90.1152 30.01C89.7118 29.7167 89.4002 29.3683 89.1802 28.965C88.9968 28.525 88.8868 28.14 88.8502 27.81C88.8502 27.48 88.8868 27.2783 88.9602 27.205C89.3268 26.8017 89.6385 26.27 89.8952 25.61C90.1885 24.95 90.5002 24.345 90.8302 23.795C90.9035 23.685 90.9952 23.5383 91.1052 23.355C91.2518 23.135 91.3985 23.0067 91.5452 22.97C91.9852 22.6767 92.5902 22.695 93.3602 23.025C94.1668 23.355 94.7535 23.8133 95.1202 24.4C95.4502 25.0967 95.5418 25.8117 95.3952 26.545C95.2852 27.2783 94.9002 28.0483 94.2402 28.855C93.6902 29.5883 92.9935 30.065 92.1502 30.285C91.3068 30.4683 90.6285 30.3767 90.1152 30.01ZM116.306 52.615C115.609 52.7983 114.876 52.9267 114.106 53C113.373 53.11 112.731 52.89 112.181 52.34C111.851 51.8267 111.558 51.3683 111.301 50.965C111.044 50.5617 110.879 49.8467 110.806 48.82C110.769 48.1233 110.806 47.3717 110.916 46.565C111.063 45.7217 111.118 45.1167 111.081 44.75C111.374 43.3933 111.448 42.4217 111.301 41.835C111.191 41.2483 111.044 40.955 110.861 40.955C110.458 40.8817 109.816 41.175 108.936 41.835C108.093 42.495 107.084 43.43 105.911 44.64C104.774 45.8133 103.546 47.1517 102.226 48.655C101.529 49.6083 101.016 50.3233 100.686 50.8C100.393 51.24 100.173 51.46 100.026 51.46C99.3661 51.46 98.7611 51.35 98.2111 51.13C97.6611 50.91 97.2211 50.5983 96.8911 50.195C96.5611 49.7917 96.3594 49.37 96.2861 48.93C96.2861 48.7833 96.3777 48.3983 96.5611 47.775C96.7444 47.115 96.9644 46.3633 97.2211 45.52C97.4777 44.6767 97.7161 43.8883 97.9361 43.155C98.1927 42.4217 98.3761 41.9083 98.4861 41.615C98.8161 40.6617 99.2011 39.5067 99.6411 38.15C100.118 36.7567 100.539 35.5283 100.906 34.465C101.053 33.9883 101.309 33.31 101.676 32.43C102.043 31.5133 102.409 30.5967 102.776 29.68C103.143 28.7633 103.399 28.085 103.546 27.645C103.656 27.3517 103.858 26.8383 104.151 26.105C104.444 25.335 104.756 24.4917 105.086 23.575C105.453 22.6583 105.783 21.815 106.076 21.045C106.406 20.2383 106.626 19.6517 106.736 19.285C106.699 18.955 106.718 18.6617 106.791 18.405C106.901 18.1117 107.011 17.8917 107.121 17.745C107.268 17.745 107.433 17.745 107.616 17.745C107.799 17.7083 107.891 17.69 107.891 17.69C107.891 17.6167 108.129 17.69 108.606 17.91C109.119 18.13 109.614 18.405 110.091 18.735C110.604 19.0283 110.861 19.285 110.861 19.505C111.044 19.9817 111.063 20.605 110.916 21.375C110.769 22.1083 110.384 23.2267 109.761 24.73C109.358 25.3167 108.954 26.1967 108.551 27.37C108.184 28.5433 107.818 29.5333 107.451 30.34C107.304 30.5967 107.084 31.055 106.791 31.715C106.534 32.3383 106.223 33.09 105.856 33.97C105.526 34.8133 105.196 35.7117 104.866 36.665C104.536 37.6183 104.243 38.5533 103.986 39.47C103.619 40.35 103.491 40.9367 103.601 41.23C103.711 41.5233 104.151 41.1933 104.921 40.24C105.948 39.14 106.901 38.15 107.781 37.27C108.698 36.39 109.541 35.6933 110.311 35.18C111.118 34.63 111.833 34.3917 112.456 34.465C112.786 34.5383 113.208 34.7767 113.721 35.18C114.271 35.5467 114.784 35.9867 115.261 36.5C115.774 36.9767 116.104 37.435 116.251 37.875C116.398 38.3883 116.489 38.8833 116.526 39.36C116.599 39.8367 116.618 40.515 116.581 41.395C116.544 42.2383 116.453 43.5033 116.306 45.19C116.086 46.4367 115.939 47.335 115.866 47.885C115.793 48.3983 115.811 48.765 115.921 48.985C116.068 49.205 116.288 49.4433 116.581 49.7C117.131 50.14 117.351 50.6717 117.241 51.295C117.131 51.8817 116.819 52.3217 116.306 52.615ZM128.89 52.56C128.12 52.7067 127.533 52.67 127.13 52.45C126.763 52.1933 126.378 51.8817 125.975 51.515C125.388 51.2217 124.857 50.8183 124.38 50.305C123.903 49.755 123.537 49.1867 123.28 48.6C123.023 48.0133 122.913 47.555 122.95 47.225C123.06 45.9417 123.353 44.5483 123.83 43.045C124.343 41.5417 124.985 40.075 125.755 38.645C126.562 37.215 127.46 35.95 128.45 34.85C129.477 33.7133 130.577 32.8883 131.75 32.375C132.483 32.0817 133.272 31.9717 134.115 32.045C134.958 32.1183 135.527 32.4667 135.82 33.09C136.37 34.1533 136.242 34.8317 135.435 35.125C135.325 35.125 135.197 35.18 135.05 35.29C134.903 35.3633 134.83 35.4733 134.83 35.62C134.977 35.6933 135.38 35.7117 136.04 35.675C136.7 35.6017 137.36 35.4917 138.02 35.345C138.717 35.1617 139.175 34.9783 139.395 34.795C139.615 34.685 139.78 34.63 139.89 34.63C140 34.63 140.275 34.6667 140.715 34.74C141.338 34.9233 141.65 35.1433 141.65 35.4C141.65 35.5467 141.705 35.785 141.815 36.115C141.925 36.4083 142.053 36.555 142.2 36.555C142.457 36.5917 142.512 36.8483 142.365 37.325C142.255 37.8017 141.833 38.2967 141.1 38.81C140.403 39.25 139.963 39.5433 139.78 39.69C139.633 39.8 139.615 40.0567 139.725 40.46C140.018 41.1567 140 42 139.67 42.99C139.34 43.98 138.79 45.0067 138.02 46.07C137.25 47.1333 136.333 48.1417 135.27 49.095C134.243 50.0117 133.162 50.8 132.025 51.46C130.925 52.0833 129.88 52.45 128.89 52.56ZM129.055 47.94C129.202 47.94 129.458 47.8667 129.825 47.72C130.192 47.5367 130.485 47.39 130.705 47.28C130.852 47.1333 131.035 46.9683 131.255 46.785C131.512 46.565 131.713 46.4367 131.86 46.4C132.007 46.4 132.098 46.345 132.135 46.235C132.172 46.0883 132.3 45.8133 132.52 45.41C132.74 44.97 133.18 44.3283 133.84 43.485C134.573 42.6783 135.05 42.0367 135.27 41.56C135.49 41.0467 135.508 40.4967 135.325 39.91C135.288 39.7633 135.178 39.6717 134.995 39.635C134.848 39.5983 134.647 39.5067 134.39 39.36C134.023 39.36 133.767 39.4517 133.62 39.635C133.51 39.7817 133.253 39.69 132.85 39.36L131.97 38.26L131.035 39.195C130.448 39.7817 129.917 40.515 129.44 41.395C129 42.275 128.652 43.1733 128.395 44.09C128.138 45.0067 127.973 45.8133 127.9 46.51C127.863 47.06 127.955 47.4267 128.175 47.61C128.395 47.7933 128.688 47.9033 129.055 47.94ZM164.157 51.68C163.35 51.6067 162.672 51.4417 162.122 51.185C161.608 50.8917 161.187 50.3233 160.857 49.48C160.71 48.8933 160.637 48.2883 160.637 47.665C160.673 47.005 160.728 46.3817 160.802 45.795C160.875 45.1717 160.912 44.64 160.912 44.2C160.912 44.1267 160.912 43.98 160.912 43.76C160.912 43.54 160.912 43.3383 160.912 43.155C160.838 42.605 160.692 42.275 160.472 42.165C160.288 42.0183 159.958 42.0367 159.482 42.22C158.712 42.5867 157.868 43.0817 156.952 43.705C156.072 44.2917 155.137 44.9883 154.147 45.795C153.193 46.565 152.203 47.39 151.177 48.27C150.37 49.15 149.765 49.865 149.362 50.415C148.995 50.965 148.61 51.24 148.207 51.24C147.913 51.3867 147.602 51.35 147.272 51.13C146.942 50.91 146.593 50.6533 146.227 50.36C145.97 50.0667 145.658 49.7 145.292 49.26C144.962 48.7833 144.76 48.4717 144.687 48.325C144.687 47.7383 144.723 47.2067 144.797 46.73C144.907 46.2533 145.053 45.7583 145.237 45.245C145.457 44.7317 145.713 44.145 146.007 43.485C146.153 43.2283 146.282 42.9717 146.392 42.715C146.538 42.4217 146.703 42.11 146.887 41.78C147.033 41.2667 147.235 40.68 147.492 40.02C147.785 39.36 148.06 38.7367 148.317 38.15C148.72 37.1967 149.032 36.3717 149.252 35.675C149.472 34.9783 149.655 34.2267 149.802 33.42C149.765 33.3467 149.783 33.2367 149.857 33.09C149.93 32.9433 150.04 32.8517 150.187 32.815H150.242H150.297C150.553 32.6317 151.03 32.6133 151.727 32.76C152.46 32.87 153.01 33.0717 153.377 33.365C154.147 34.025 154.513 34.8867 154.477 35.95C154.44 37.0133 153.89 38.4067 152.827 40.13C152.57 40.7167 152.295 41.2667 152.002 41.78C151.745 42.2567 151.617 42.5867 151.617 42.77C151.617 42.77 151.763 42.66 152.057 42.44C152.35 42.22 152.698 41.9633 153.102 41.67C153.505 41.34 153.853 41.0833 154.147 40.9C154.33 40.7167 154.733 40.3867 155.357 39.91C155.98 39.3967 156.658 38.865 157.392 38.315C158.125 37.765 158.712 37.3433 159.152 37.05C159.555 36.7567 160.068 36.4633 160.692 36.17C161.315 35.84 161.7 35.675 161.847 35.675C162.213 35.675 162.653 35.8033 163.167 36.06C163.717 36.3167 164.212 36.6283 164.652 36.995C165.128 37.325 165.403 37.6367 165.477 37.93C165.477 38.0767 165.458 38.2783 165.422 38.535C165.385 38.755 165.367 38.9567 165.367 39.14C165.33 39.7267 165.312 40.4417 165.312 41.285C165.348 42.0917 165.367 42.9167 165.367 43.76C165.367 44.5667 165.293 45.3 165.147 45.96C165.147 45.96 165.165 45.9967 165.202 46.07C165.238 46.1067 165.275 46.18 165.312 46.29C165.275 46.3267 165.257 46.4 165.257 46.51C165.293 46.5833 165.312 46.62 165.312 46.62C165.385 46.8767 165.458 47.1333 165.532 47.39C165.642 47.6467 165.77 47.94 165.917 48.27C166.063 48.5633 166.228 48.9483 166.412 49.425C166.375 49.9017 166.1 50.3783 165.587 50.855C165.11 51.295 164.633 51.57 164.157 51.68ZM175.921 52.505C174.491 51.9183 173.501 50.965 172.951 49.645C172.401 48.325 172.254 46.565 172.511 44.365C172.584 43.2283 172.548 42.4767 172.401 42.11C172.254 41.7067 171.979 41.3217 171.576 40.955C171.466 40.8083 171.209 40.57 170.806 40.24C170.403 39.8733 170.219 39.5983 170.256 39.415C170.219 39.1583 170.274 38.8467 170.421 38.48C170.568 38.0767 170.696 37.8567 170.806 37.82C171.063 37.71 171.319 37.5817 171.576 37.435C171.869 37.2883 172.089 37.2517 172.236 37.325C172.383 37.325 172.603 37.4167 172.896 37.6C173.226 37.7833 173.391 37.9483 173.391 38.095C173.538 38.3517 173.758 38.2417 174.051 37.765C174.381 37.2883 174.729 36.6833 175.096 35.95C175.463 35.3633 175.921 34.8133 176.471 34.3C177.021 33.7867 177.571 33.3283 178.121 32.925C178.708 32.485 179.203 32.155 179.606 31.935C179.789 31.8617 180.138 31.7517 180.651 31.605C181.201 31.4583 181.769 31.3483 182.356 31.275C182.943 31.165 183.383 31.1283 183.676 31.165C184.336 31.2017 185.033 31.4767 185.766 31.99C186.499 32.5033 187.068 32.98 187.471 33.42C187.948 33.75 188.259 34.2633 188.406 34.96C188.589 35.62 188.663 36.3167 188.626 37.05C188.589 37.7833 188.443 38.4067 188.186 38.92C188.076 39.2867 187.691 39.8 187.031 40.46C186.371 41.12 185.638 41.7617 184.831 42.385C184.061 42.9717 183.401 43.375 182.851 43.595C182.374 43.705 181.806 43.7967 181.146 43.87C180.486 43.9067 179.863 43.9067 179.276 43.87C178.726 43.7967 178.341 43.705 178.121 43.595C177.864 43.4483 177.644 43.5033 177.461 43.76C177.314 43.98 177.186 44.6033 177.076 45.63C177.039 46.0333 177.039 46.3817 177.076 46.675C177.149 46.9683 177.223 47.1883 177.296 47.335C177.553 47.775 177.809 48.105 178.066 48.325C178.323 48.5083 178.799 48.5633 179.496 48.49C180.193 48.4167 180.889 47.995 181.586 47.225C182.319 46.4183 182.979 45.7767 183.566 45.3C183.713 45.0433 184.024 44.8783 184.501 44.805C185.014 44.695 185.619 44.7317 186.316 44.915C186.719 45.1717 186.903 45.575 186.866 46.125C186.866 46.675 186.573 47.4817 185.986 48.545C185.876 48.8017 185.564 49.1867 185.051 49.7C184.574 50.1767 184.043 50.6717 183.456 51.185C182.906 51.6617 182.448 52.01 182.081 52.23C180.981 52.8167 179.899 53.0917 178.836 53.055C177.773 53.0183 176.801 52.835 175.921 52.505ZM179.991 40.13C180.541 39.9833 180.999 39.8367 181.366 39.69C181.769 39.5433 182.154 39.305 182.521 38.975C182.888 38.645 183.309 38.15 183.786 37.49C183.933 37.0867 184.006 36.7383 184.006 36.445C184.043 36.1517 184.024 35.9683 183.951 35.895C183.658 35.6017 183.328 35.51 182.961 35.62C182.631 35.6933 182.264 35.8767 181.861 36.17C181.604 36.28 181.238 36.5183 180.761 36.885C180.321 37.215 179.881 37.6 179.441 38.04C179.038 38.4433 178.708 38.8283 178.451 39.195C178.231 39.525 178.194 39.7267 178.341 39.8C178.268 39.9467 178.469 40.0383 178.946 40.075C179.459 40.1117 179.808 40.13 179.991 40.13ZM199.455 53.33C198.942 53.1833 198.428 52.9267 197.915 52.56C197.402 52.1933 196.87 51.7717 196.32 51.295C195.88 50.7083 195.568 50.1767 195.385 49.7C195.202 49.1867 195.092 48.6 195.055 47.94C195.055 47.2433 195.055 46.3633 195.055 45.3C195.055 44.86 195.128 44.2367 195.275 43.43C195.458 42.6233 195.642 41.78 195.825 40.9C196.045 40.02 196.247 39.25 196.43 38.59C196.613 37.8933 196.723 37.435 196.76 37.215C196.87 36.7383 196.687 36.4633 196.21 36.39C195.733 36.3167 195.202 36.2983 194.615 36.335C194.065 36.335 193.698 36.28 193.515 36.17C193.368 36.1333 193.295 35.95 193.295 35.62C193.295 35.2533 193.295 35.07 193.295 35.07C193.295 34.9233 193.222 34.8317 193.075 34.795C192.928 34.7217 192.8 34.5933 192.69 34.41C192.617 34.2633 192.708 33.9883 192.965 33.585C193.222 33.1817 193.552 32.9433 193.955 32.87C194.285 32.7967 194.78 32.7417 195.44 32.705C196.1 32.6317 196.76 32.5033 197.42 32.32C198.117 32.1 198.648 31.77 199.015 31.33C199.345 30.5233 199.712 29.6617 200.115 28.745C200.518 27.7917 200.903 26.9667 201.27 26.27C201.637 25.5367 201.893 25.0783 202.04 24.895C202.663 24.565 203.305 24.4367 203.965 24.51C204.625 24.5467 205.138 24.8583 205.505 25.445C205.688 25.7017 205.835 25.885 205.945 25.995C206.092 26.105 206.147 26.27 206.11 26.49C206.11 26.71 205.963 27.1133 205.67 27.7C205.413 28.25 204.973 29.1117 204.35 30.285C204.167 30.6517 204.002 30.9817 203.855 31.275C203.708 31.5317 203.635 31.66 203.635 31.66C203.782 31.6967 204.002 31.715 204.295 31.715C204.588 31.715 204.955 31.6967 205.395 31.66C205.798 31.5867 206.238 31.5317 206.715 31.495C207.192 31.4217 207.613 31.4217 207.98 31.495C208.823 31.495 209.447 31.7333 209.85 32.21C210.253 32.6867 210.473 33.2917 210.51 34.025C210.583 34.4283 210.437 34.7767 210.07 35.07C209.703 35.3633 209.025 35.51 208.035 35.51C207.705 35.51 207.228 35.5283 206.605 35.565C205.982 35.6017 205.34 35.6383 204.68 35.675C204.02 35.7117 203.452 35.7667 202.975 35.84C202.535 35.8767 202.315 35.9317 202.315 36.005C202.205 36.0783 202.022 36.3717 201.765 36.885C201.545 37.3617 201.307 37.9483 201.05 38.645C200.83 39.3417 200.628 40.0017 200.445 40.625C200.188 41.8717 200.005 43.0817 199.895 44.255C199.785 45.4283 199.767 46.455 199.84 47.335C199.95 48.1783 200.17 48.7833 200.5 49.15C200.83 49.48 201.325 49.48 201.985 49.15C202.682 48.7833 203.323 48.3617 203.91 47.885C204.57 47.335 205.138 47.17 205.615 47.39C206.092 47.5733 206.385 47.9767 206.495 48.6C206.642 49.1867 206.477 49.8283 206 50.525C205.56 51.2217 204.937 51.8083 204.13 52.285C203.323 52.7617 202.498 53.0917 201.655 53.275C200.812 53.495 200.078 53.5133 199.455 53.33Z" fill="#6197FF"/>
</g>
<defs>
<clipPath id="clip0_353_1068">
<rect width="213" height="69" fill="white"/>
</clipPath>
</defs>
</svg>
